<?xml version="1.0" encoding="utf-8"?>
<svg viewBox="0 0 500 500" xmlns="http://www.w3.org/2000/svg">
  <g id="freepik--Shadow--inject-95" transform="matrix(1, 0, 0, 1, -2.4875619411468506, -38.97180938720703)">
    <ellipse id="freepik--path--inject-95" cx="250" cy="416.24" rx="193.89" ry="11.32" style="fill:#f5f5f5"/>
  </g>
  <g id="freepik--Plants--inject-98" transform="matrix(0.6557480096817017, 0, 0, 0.6557480096817017, -13.92807865142822, 46.80437469482422)" style="">
    <path d="M576,430.88c-17.18-16.71-17.48-42.56-13-65,.74-3.75,1-7.79,3.31-10.81s6.89-4.6,10-2.46c2.59,1.78,3.28,5.24,4.41,8.19a22.39,22.39,0,0,0,7.47,9.89c2.2,1.63,5,2.88,7.63,2,3.54-1.27,4.66-5.7,5.25-9.45q1.63-10.5,3.28-21c.59-3.75,1.21-7.59,2.95-11s4.87-6.25,8.6-6.67,7.81,2.36,8,6.15c.07,1.58-.5,3.12-.65,4.69s.29,3.42,1.7,4.09,3.1-.13,4.4-1.05c4.49-3.16,7.91-7.61,11.16-12.06s6.44-9,10.62-12.59,9.58-6,15-5.47,10.61,4.82,11.11,10.32-3.46,10.37-7.52,14.1a84.65,84.65,0,0,1-20.14,13.78c-1.32.65-2.75,1.35-3.43,2.66-1.22,2.37.75,5.24,3.08,6.46,2.65,1.39,5.73,1.59,8.6,2.42s5.82,2.62,6.48,5.57c.91,4.08-2.95,7.58-6.54,9.7a72.55,72.55,0,0,1-23.22,8.79c-2.92.56-6,1-8.51,2.55s-4.44,4.73-3.52,7.59,4.22,4.27,7.2,4.21,5.82-1.22,8.74-1.81c5.48-1.1,12.08.34,14.65,5.33,1.7,3.28,1.22,7.39-.45,10.71s-4.38,5.95-7.19,8.34c-9.84,8.35-21.69,14.43-34.33,16.62s-23.9,1.52-35.07-4.76" style="fill:#FFB05E"/>
    <path d="M573,447.58a166.67,166.67,0,0,1,11.17-29.92,339.14,339.14,0,0,1,19.24-34l5.5-8.66c1.81-2.84,3.61-5.65,5.54-8.29a169.23,169.23,0,0,1,11.94-14.56c4-4.45,8-8.52,11.76-12.3s7.33-7.22,10.72-10.23a135.37,135.37,0,0,1,17-13c2.13-1.37,3.81-2.38,5-3l1.31-.76a3,3,0,0,1,.46-.23,4.19,4.19,0,0,1-.42.3l-1.28.81c-1.12.7-2.78,1.75-4.88,3.15A143.22,143.22,0,0,0,649.2,330c-3.36,3-6.9,6.49-10.63,10.28s-7.69,7.87-11.69,12.32A170.84,170.84,0,0,0,615,367.1c-1.91,2.63-3.69,5.43-5.51,8.27S605.86,381.1,604,384a350.28,350.28,0,0,0-19.25,33.92,169.8,169.8,0,0,0-11.27,29.77" style="fill:#263238"/>
    <path d="M614.66,366.7a7.85,7.85,0,0,1-.11-1.66c0-1.07,0-2.61,0-4.53.07-3.82.36-9.09.7-14.9s.56-11.08.58-14.89c0-1.91,0-3.45,0-4.52a7.19,7.19,0,0,1,.06-1.66,7.46,7.46,0,0,1,.21,1.65c.1,1.06.18,2.61.23,4.52.11,3.82,0,9.11-.37,14.93s-.67,10.93-.91,14.89c-.1,1.79-.18,3.3-.24,4.52A8,8,0,0,1,614.66,366.7Z" style="fill:#263238"/>
    <path d="M664.36,365.55a10.7,10.7,0,0,1-2-.09c-1.26-.09-3.08-.23-5.32-.33-4.5-.25-10.72-.36-17.59-.19s-13.08.61-17.57,1.05c-2.24.2-4,.42-5.3.56a10.55,10.55,0,0,1-2,.15,10.21,10.21,0,0,1,1.92-.43c1.24-.22,3-.51,5.29-.78,4.49-.57,10.71-1.08,17.61-1.26a172.82,172.82,0,0,1,17.63.4c2.25.17,4.07.38,5.32.56A9.8,9.8,0,0,1,664.36,365.55Z" style="fill:#263238"/>
    <path d="M584.92,416.87s-.11-.21-.24-.64-.32-1.13-.54-1.88c-.46-1.63-1.07-4-1.78-7-1.43-5.9-3.14-14.12-4.91-23.21s-3.4-17.32-4.7-23.25c-.64-2.88-1.17-5.25-1.57-7-.16-.77-.3-1.4-.41-1.91a2.68,2.68,0,0,1-.1-.68s.11.21.24.64.32,1.13.54,1.88c.46,1.63,1.07,4,1.78,7,1.42,5.9,3.14,14.12,4.91,23.22s3.4,17.31,4.7,23.24l1.56,7c.17.76.31,1.4.42,1.91A2.63,2.63,0,0,1,584.92,416.87Z" style="fill:#263238"/>
    <path d="M652.37,406.66a2.8,2.8,0,0,1-.68.16l-2,.32-7.23,1.1c-6.1.94-14.51,2.33-23.8,3.87S601,415,594.85,415.78c-3.06.41-5.54.71-7.26.88l-2,.19a2.13,2.13,0,0,1-.69,0,2.63,2.63,0,0,1,.68-.16l2-.32,7.22-1.1c6.1-.94,14.52-2.33,23.81-3.87s17.72-2.86,23.85-3.67c3.06-.41,5.54-.71,7.26-.88l2-.19A2.58,2.58,0,0,1,652.37,406.66Z" style="fill:#263238"/>
    <path d="M114.62,352c5.41-1.45,11.33-.08,16.09,2.86A36.8,36.8,0,0,1,142.15,367c5.75,9.19,7.72,21.5,7.91,32.34-12-.56-22.24-10.07-27.12-15.22-7.71-8.14-16.72-27.53-8.32-32.08" style="fill:#FFB05E"/>
    <path d="M169.37,406.64c-4.92-3.86-7.09-10.66-6-16.82a23.62,23.62,0,0,1,10.27-15.11c2.39-1.63,5.36-2.91,8.13-2.07a7.6,7.6,0,0,1,4.89,6,15.43,15.43,0,0,1-1,8c-3.09,8.75-7.68,16.65-16.29,20.08" style="fill:#FFB05E"/>
    <path d="M180.29,440.93a8.19,8.19,0,0,1-1.2-1.94c-.69-1.28-1.67-3.16-2.8-5.51a76.62,76.62,0,0,1-6.66-19.35c-1.42-8-.38-15.46,1.62-20.35a24.35,24.35,0,0,1,2.94-5.5,7.13,7.13,0,0,1,1.49-1.73c.21.13-1.93,2.65-3.63,7.53a40.08,40.08,0,0,0-1.22,19.84,88.43,88.43,0,0,0,6.24,19.2C179.14,437.9,180.45,440.85,180.29,440.93Z" style="fill:#263238"/>
    <path d="M122.78,366.16a21.14,21.14,0,0,1,2.61,2.7c1.62,1.79,3.92,4.42,6.73,7.7,5.61,6.55,13.22,15.74,21.38,26.09s15.29,19.9,20.35,26.9c2.53,3.5,4.55,6.35,5.91,8.35a21.76,21.76,0,0,1,2,3.16,23.26,23.26,0,0,1-2.39-2.89l-6.22-8.11c-5.23-6.86-12.48-16.32-20.62-26.66s-15.64-19.6-21.08-26.29L125,369.16A22.85,22.85,0,0,1,122.78,366.16Z" style="fill:#263238"/>
    <path d="M161.25,420a41.64,41.64,0,0,0-37.35-7.24c-3.21,1-6.78,2.93-7.1,6.27s2.81,6,5.83,7.47a35.58,35.58,0,0,0,39.06-5.7" style="fill:#FFB05E"/>
    <path d="M131.89,418.88a7.58,7.58,0,0,1,2.09-.63,18.65,18.65,0,0,1,2.52-.46,30,30,0,0,1,3.37-.35,43.7,43.7,0,0,1,8.83.39,46.72,46.72,0,0,1,20,7.92,44,44,0,0,1,6.7,5.76,27.8,27.8,0,0,1,2.23,2.56,17.76,17.76,0,0,1,1.52,2.06,7.6,7.6,0,0,1,1.09,1.88c-.19.14-1.91-2.45-5.45-5.9a49,49,0,0,0-6.72-5.44,54.89,54.89,0,0,0-9.37-4.92,53.72,53.72,0,0,0-10.19-2.81,48.53,48.53,0,0,0-8.63-.64C135,418.4,131.94,419.11,131.89,418.88Z" style="fill:#263238"/>
  </g>
  <g id="freepik--Device--inject-98" transform="matrix(0.6557480096817017, 0, 0, 0.6557480096817017, -13.92807865142822, 46.80437469482422)" style="">
    <rect x="173.75" y="182.49" width="408.03" height="269.83" rx="14.57" style="fill:#455a64"/>
    <path d="M157.26,432.36H599.33a0,0,0,0,1,0,0v5.81a17.8,17.8,0,0,1-17.8,17.8H175.06a17.8,17.8,0,0,1-17.8-17.8v-5.81A0,0,0,0,1,157.26,432.36Z" style="fill:#455a64"/>
    <rect x="185.28" y="193.21" width="384.98" height="227.86" style="fill:#f5f5f5"/>
    <path d="M338.11,432.36h1.72l5,0,18.65-.08,62.37-.13h.46l-.23.4c-.78,1.34-1.63,2.78-2.47,4.24s-1.78,3-2.62,4.48l-.08.13h-.15l-77.19-.14h-.07l0-.06-4-6.57-1-1.67-.33-.55.39.58c.25.4.61.95,1.08,1.67.94,1.47,2.33,3.62,4.12,6.42l-.1-.06,77.19-.14-.23.13,2.62-4.49c.85-1.45,1.69-2.9,2.48-4.24l.22.4-62.11-.14L345,432.42l-5.11,0h-1.33Z" style="fill:#263238"/>
    <path d="M581.78,432.36c0,.14-91.35.25-204,.25s-204-.11-204-.25,91.33-.24,204-.24S581.78,432.23,581.78,432.36Z" style="fill:#263238"/>
  </g>
  <g id="freepik--Chat--inject-95" transform="matrix(0.6019610166549683, 0, 0, 0.5105920433998108, 59.704254150390625, 41.882598876953125)" style="">
    <path d="M115,148.09h81a11.18,11.18,0,0,1,11.26,12L205,196.75a13,13,0,0,1-12.74,12h-9.38l3.83,12.59-18.32-12.59H111.29a11.18,11.18,0,0,1-11.26-12l2.24-36.66A13,13,0,0,1,115,148.09Z" style="fill:#FFB05E"/>
    <path d="M188.58,167.29h-68.5A2.1,2.1,0,0,1,118,165h0a2.44,2.44,0,0,1,2.39-2.26h68.51A2.11,2.11,0,0,1,191,165h0A2.43,2.43,0,0,1,188.58,167.29Z" style="fill:#fff"/>
    <path d="M148,180.68H119.26a2.11,2.11,0,0,1-2.12-2.26h0a2.44,2.44,0,0,1,2.4-2.26h28.77a2.11,2.11,0,0,1,2.13,2.26h0A2.45,2.45,0,0,1,148,180.68Z" style="fill:#fff"/>
    <path d="M172.63,194.07H118.44a2.11,2.11,0,0,1-2.12-2.26h0a2.43,2.43,0,0,1,2.4-2.26h54.19a2.1,2.1,0,0,1,2.12,2.26h0A2.44,2.44,0,0,1,172.63,194.07Z" style="fill:#fff"/>
    <path d="M169.11,180.68H157.78a2.11,2.11,0,0,1-2.12-2.26h0a2.45,2.45,0,0,1,2.4-2.26h11.32a2.1,2.1,0,0,1,2.12,2.26h0A2.44,2.44,0,0,1,169.11,180.68Z" style="fill:#fff"/>
    <path d="M227.79,82.19H183.63a10.09,10.09,0,0,0-9.91,9.33L172,120.06a8.71,8.71,0,0,0,8.77,9.33H188l-4.18,9.8,15.46-9.8H224.9a10.09,10.09,0,0,0,9.91-9.33l1.75-28.54A8.71,8.71,0,0,0,227.79,82.19Z" style="fill:#FFB05E"/>
    <g style="opacity:0.5">
      <path d="M227.79,82.19H183.63a10.09,10.09,0,0,0-9.91,9.33L172,120.06a8.71,8.71,0,0,0,8.77,9.33H188l-4.18,9.8,15.46-9.8H224.9a10.09,10.09,0,0,0,9.91-9.33l1.75-28.54A8.71,8.71,0,0,0,227.79,82.19Z" style="fill:#fafafa"/>
    </g>
    <path d="M206.5,110.46a2.89,2.89,0,0,1-2.8,2.21h-2.61c0-.74.06-1.19.07-1.35a9.38,9.38,0,0,1,1.08-4.13,13.81,13.81,0,0,1,3.54-3.64,27.19,27.19,0,0,0,3.14-2.66,3.76,3.76,0,0,0,.88-2.18,3.48,3.48,0,0,0-1.15-2.85,4.94,4.94,0,0,0-3.5-1.18,5.68,5.68,0,0,0-3.7,1.24,5.89,5.89,0,0,0-1.5,1.87,3,3,0,0,1-2.9,1.62h0a2.54,2.54,0,0,1-1.84-3.87,10.17,10.17,0,0,1,2.29-2.66,11.51,11.51,0,0,1,7.67-2.53c3.27,0,5.81.85,7.64,2.56a7.31,7.31,0,0,1,2.53,6,7,7,0,0,1-1.28,3.56,25.7,25.7,0,0,1-4.83,4.58,9.35,9.35,0,0,0-2.38,2.41A3.81,3.81,0,0,0,206.5,110.46Zm-5.71,7.18,0-.32a2.89,2.89,0,0,1,2.85-2.68H204a2.5,2.5,0,0,1,2.53,2.68l0,.32a2.9,2.9,0,0,1-2.85,2.69h-.32A2.5,2.5,0,0,1,200.79,117.64Z" style="fill:#fff"/>
  </g>
  <g id="freepik--rabbit-1--inject-6" transform="matrix(-0.5888200402259827, 0, 0, 0.5801640152931213, 325.67041015625, 93.6876449584961)" style="">
    <g id="freepik--rabbit--inject-6">
      <path d="M88.59,257.21a10.38,10.38,0,0,0-15.46-11.73c-2.34-6.16-9.42-13.2-16.43-13.31A22.39,22.39,0,0,1,57,245.36a7.78,7.78,0,0,0-4.66-3.2c.1,3.08-1.54,6-3.53,8.32s-4.38,4.38-6.21,6.86A19.93,19.93,0,0,0,39.4,264c-1,3.81-.52,8.51,2.73,10.75-2.7,3.18-4.48,8.12-3.41,12.15.9,3.38,5.43,8.71,9.52,8.19.34,2.71.71,4.89,2.43,7.18,3.16,4.22,8.6,6.82,13.81,6a12.28,12.28,0,0,0,7.15-4c.43-.5,4.21-7.58,2.39-7.5a11.34,11.34,0,0,0,9.63-6.6,10.66,10.66,0,0,0-.41-9.47,10.5,10.5,0,0,0,3.1-19.25A10.08,10.08,0,0,0,88.59,257.21Z" style="fill:#EF7218"/>
      <g style="opacity:0.8">
        <path d="M88.59,257.21a10.38,10.38,0,0,0-15.46-11.73c-2.34-6.16-9.42-13.2-16.43-13.31A22.39,22.39,0,0,1,57,245.36a7.78,7.78,0,0,0-4.66-3.2c.1,3.08-1.54,6-3.53,8.32s-4.38,4.38-6.21,6.86A19.93,19.93,0,0,0,39.4,264c-1,3.81-.52,8.51,2.73,10.75-2.7,3.18-4.48,8.12-3.41,12.15.9,3.38,5.43,8.71,9.52,8.19.34,2.71.71,4.89,2.43,7.18,3.16,4.22,8.6,6.82,13.81,6a12.28,12.28,0,0,0,7.15-4c.43-.5,4.21-7.58,2.39-7.5a11.34,11.34,0,0,0,9.63-6.6,10.66,10.66,0,0,0-.41-9.47,10.5,10.5,0,0,0,3.1-19.25A10.08,10.08,0,0,0,88.59,257.21Z" style="fill:#fff"/>
      </g>
      <path d="M62.29,293.1a5.88,5.88,0,0,1-7.56-6.71,5.9,5.9,0,0,1-9.31-4.94c.06-2.51,1.67-4.68,3.21-6.65-3-1.13-5.86-2.74-7.7-5.31a9,9,0,0,1-1.68-4.88c-.79,3.69-.19,8,2.88,10.12-2.7,3.18-4.48,8.12-3.41,12.15.9,3.38,5.43,8.71,9.52,8.19.34,2.71.71,4.89,2.43,7.18,3.16,4.22,8.6,6.82,13.81,6a12.28,12.28,0,0,0,7.15-4c.43-.5,4.21-7.58,2.39-7.5a11.34,11.34,0,0,0,9.63-6.6,10.66,10.66,0,0,0-.41-9.47,10.5,10.5,0,0,0,3.1-19.25,10.08,10.08,0,0,0,2.25-4.21,11.43,11.43,0,0,0,.35-2.54,57,57,0,0,0-14.31,10C67,272.06,61.83,282.45,62.29,293.1Z" style="fill:#EF7218;opacity:0.15"/>
      <path d="M138.33,282.83c2.48,6.72,4.85,13.54,8.35,19.81,3.13,5.6,8.79,10.13,9.85,16.61.47,2.86.55,5.82,1.59,8.53,2.25,5.79,8.31,9,14,11.53a224.75,224.75,0,0,0,24.25,9,51,51,0,0,0,12.53,2.59,29,29,0,0,0,8.09-.81c7.82-1.94,11.6-9.71,6.55-16.58a30.76,30.76,0,0,0-9.48-8,57,57,0,0,0-5.93-3c-.78-.35-4.74-2.3-5.48-1.83a42,42,0,0,0,16-18.6,14.44,14.44,0,0,0,1.53-7.23,19.59,19.59,0,0,1,3.39,6.26c.11-.31.22-.62.32-.93a48.59,48.59,0,0,0-.9-32.3c-3.79-9.82-12.46-17.91-21.5-23-7.54-4.25-16.33-5.82-25-6.14a50.22,50.22,0,0,0-13.68,1.07,48.13,48.13,0,0,0-12,5c-5,2.82-9.87,6.37-12.54,11.45C134,264.37,135.3,274.61,138.33,282.83Z" style="fill:#fff"/>
      <path d="M138.33,282.83c2.48,6.72,4.85,13.54,8.35,19.81,3.13,5.6,8.79,10.13,9.85,16.61.47,2.86.55,5.82,1.59,8.53,2.25,5.79,8.31,9,14,11.53a224.75,224.75,0,0,0,24.25,9,51,51,0,0,0,12.53,2.59,29,29,0,0,0,8.09-.81c7.82-1.94,11.6-9.71,6.55-16.58a30.76,30.76,0,0,0-9.48-8,57,57,0,0,0-5.93-3c-.78-.35-4.74-2.3-5.48-1.83a42,42,0,0,0,16-18.6,14.44,14.44,0,0,0,1.53-7.23,19.59,19.59,0,0,1,3.39,6.26c.11-.31.22-.62.32-.93a48.59,48.59,0,0,0-.9-32.3c-3.79-9.82-12.46-17.91-21.5-23-7.54-4.25-16.33-5.82-25-6.14a50.22,50.22,0,0,0-13.68,1.07,48.13,48.13,0,0,0-12,5c-5,2.82-9.87,6.37-12.54,11.45C134,264.37,135.3,274.61,138.33,282.83Z" style="fill:#EF7218;opacity:0.15"/>
      <path d="M182,250.92c-4.48-4.36-10.05-9.68-9.87-16.46.18-7,.22-14.31-1.17-21.2-1.18-5.88-1.58-11.25-6.72-15.08s-12.25-5.5-18.49-6.46c-6.52-1-13.27,1.85-18.19,6-6.14,5.17-10.24,12.28-14.75,18.92-7.08,10.45-15.39,20-23.07,30S74.88,267.3,70.53,279.15c-5.43,14.81-5.31,31.77,1.64,46.07a50.88,50.88,0,0,0,9.51,13.48c-3.78,9.09.11,17.19,6.21,21.53,9.18,6.53,15.78,9,22.64,12.34,7,3.39,15.8,6.68,22.13,7.61,10.71,1.57,15.49,1.62,22.33-2.83,3-2,5.15-4.93,4.52-9.54a7.85,7.85,0,0,0-3.12-5.55c6.8.75,17.86-2.59,31-12.47,16.42-12.38,25.08-34.65,23-55.1a51.7,51.7,0,0,0-9.66-25.25,45.37,45.37,0,0,0-9.52-9.6C187.75,257.32,185,253.92,182,250.92Z" style="fill:#fff"/>
      <path d="M182,250.92c-4.48-4.36-10.05-9.68-9.87-16.46.18-7,.22-14.31-1.17-21.2-1.18-5.88-1.58-11.25-6.72-15.08s-12.25-5.5-18.49-6.46c-6.52-1-13.27,1.85-18.19,6-6.14,5.17-10.24,12.28-14.75,18.92-7.08,10.45-15.39,20-23.07,30S74.88,267.3,70.53,279.15c-5.43,14.81-5.31,31.77,1.64,46.07a50.88,50.88,0,0,0,9.51,13.48c-3.78,9.09.11,17.19,6.21,21.53,9.18,6.53,15.78,9,22.64,12.34,7,3.39,15.8,6.68,22.13,7.61,10.71,1.57,15.49,1.62,22.33-2.83,3-2,5.15-4.93,4.52-9.54a7.85,7.85,0,0,0-3.12-5.55c6.8.75,17.86-2.59,31-12.47,16.42-12.38,25.08-34.65,23-55.1a51.7,51.7,0,0,0-9.66-25.25,45.37,45.37,0,0,0-9.52-9.6C187.75,257.32,185,253.92,182,250.92Z" style="fill:#EF7218;opacity:0.05"/>
      <path d="M156.39,362.26l1,.95A10.4,10.4,0,0,0,156.39,362.26Z" style="fill:#EF7218;opacity:0.2"/>
      <path d="M146.08,351.11c-2.37-1.86-8.51-6.95-9.17-8.36,9-7.16,10.34-15,10-23.06-.46-10.3-5.81-15.77-6.43-12.87-1.74,8.13-2.44,5.78-2.93,2.45-1.72-11.47-9.75-24.12-17.07-24.92,11,4.62,14.38,27.54,14.39,33s3.18.82,4.28.48c1.94-.6,3.24,15.73-8.38,23-11.21,7-22.78,7.43-31,3.16,2.49,4.47,20.84,8.19,33.07,1.47,4.9,3.48,10.87,7,12.93,8.47,7.29,5.34,8.23,6,10.63,8.33.47.06,1,.08,1.47.1A80.87,80.87,0,0,0,146.08,351.11Z" style="fill:#EF7218;opacity:0.2"/>
      <path d="M209.75,262.88c-.44,5.7.86,11.75.5,17.39a49.12,49.12,0,0,1-4.08,16.78c-2,4.62-4.95,9.05-9.23,11.73-1.94,1.21-7.35,2.69-8-.81,1,5.34-4.22,7.07-8.44,7.31-4.64.26-9-2-13.09-4A84.59,84.59,0,0,1,142.81,293c-9.92-10.64-18.33-21.43-22.8-35.59a62.39,62.39,0,0,1-2.65-12.22,67.34,67.34,0,0,1,.48-16.66A96.78,96.78,0,0,1,133,188.58c5.6-8.42,12.69-16.07,21.56-20.93s19.68-6.68,29.28-3.5a34.17,34.17,0,0,1,13.3,8.34c6.88,6.86,8.29,14.92,11.32,23.64,3.18,9.2,8,18.41,10.08,27.91a38.5,38.5,0,0,1-.27,17.89,3.15,3.15,0,0,1-2.09-1.5c1,1.72-1.64,8.24-2.23,10-1,3.14-3.16,6.22-3.83,9.42A24.55,24.55,0,0,0,209.75,262.88Z" style="fill:#fafafa"/>
      <g style="opacity:0.2">
        <path d="M173.78,163.54a31,31,0,0,1,9.79,1.53,33.28,33.28,0,0,1,12.92,8.11c5.38,5.36,7.36,11.63,9.45,18.26.52,1.63,1.05,3.31,1.64,5,1.16,3.37,2.57,6.8,3.92,10.11,2.36,5.77,4.8,11.73,6.13,17.69a37.64,37.64,0,0,1,0,16.33,1.94,1.94,0,0,1-.57-.64l-.85.49-.84.48c.4.71-.24,3.43-1.91,8.08-.17.49-.32.9-.41,1.19a33.36,33.36,0,0,1-1.67,3.88,25.5,25.5,0,0,0-2.18,5.64,24.13,24.13,0,0,0-.43,3.1,60.25,60.25,0,0,0,.24,9.11,61,61,0,0,1,.26,8.3,48.13,48.13,0,0,1-4,16.45c-2.35,5.28-5.32,9.08-8.85,11.29a9.36,9.36,0,0,1-4.32,1.23c-1.94,0-2.12-1-2.2-1.38A1,1,0,0,0,189,307h-.18a1,1,0,0,0-.78,1.15,4.17,4.17,0,0,1-.71,3.53c-1.15,1.47-3.64,2.42-6.82,2.61l-.69,0c-3.87,0-7.59-1.84-11.19-3.61l-.73-.35a83.17,83.17,0,0,1-24.34-18c-9-9.66-18-20.62-22.58-35.22a61.9,61.9,0,0,1-2.62-12,66.43,66.43,0,0,1,.48-16.43,96.1,96.1,0,0,1,15-39.53c6.25-9.39,13.38-16.33,21.21-20.61a39.26,39.26,0,0,1,18.72-5m0-1a40.47,40.47,0,0,0-19.18,5.08c-8.87,4.86-16,12.51-21.56,20.93a96.78,96.78,0,0,0-15.2,39.94,67.34,67.34,0,0,0-.48,16.66A62.39,62.39,0,0,0,120,257.4c4.47,14.16,12.88,25,22.8,35.59a84.59,84.59,0,0,0,24.62,18.25c3.91,1.91,8,4.06,12.35,4.06l.74,0c4.22-.24,9.42-2,8.44-7.29v0c.3,1.61,1.63,2.16,3.15,2.16a10.32,10.32,0,0,0,4.83-1.37c4.28-2.68,7.18-7.11,9.23-11.73a49.12,49.12,0,0,0,4.08-16.78c.36-5.64-.94-11.69-.5-17.39a24.55,24.55,0,0,1,.41-3c.67-3.2,2.8-6.28,3.83-9.42.59-1.81,3.22-8.33,2.23-10a3.15,3.15,0,0,0,2.09,1.5,38.63,38.63,0,0,0,.28-17.89c-2.13-9.5-6.91-18.71-10.09-27.91-3-8.72-4.44-16.78-11.32-23.64a34.17,34.17,0,0,0-13.3-8.34,32.11,32.11,0,0,0-10.1-1.58Z" style="fill:#EF7218"/>
      </g>
      <path d="M167.25,277.33c-10.59-8.07-12.8-11-16.09-21.19,6.2,15,27.6,25.05,35.93,19a9,9,0,0,0,3.23-8.37c.55.06,2.38,2.29,2,4.51,6.76-4,11.19-14.48,13.12-22.74-.39,11.73-3.46,17.23-12.36,28.87-4.72,6.18-5.55,17.85-4.6,30.48-1.59-6.81-1.13-8-3.9-14.65C182.41,288.13,178.55,285.94,167.25,277.33Z" style="fill:#EF7218;opacity:0.2"/>
      <path d="M191.18,126.7c.66-2.17,2.78-3.67,5.41-5.53a37.9,37.9,0,0,0,6.16-5.09c.31-.34.57-.64.83-.94s.34-.39.48-.57a1,1,0,0,1,.13-.18,43.75,43.75,0,0,0,6.7-12.29l.31-.95.45.89a25,25,0,0,0,2.55,3.62c1.81,2.32,3.69,4.71,3.69,6.5,0,3.36,1.12,5.35,3.15,5.59h0c2.58.31,6-2.16,7.59-5.51,4.68-9.74,5-26.94,1.8-32.18a9.23,9.23,0,0,0-2.1-2.5,10.4,10.4,0,0,0-4.14-1.85,15.55,15.55,0,0,1-6.11-2.87,33.58,33.58,0,0,1-2.92-2.69,29.24,29.24,0,0,0-3.41-3,8.23,8.23,0,0,0-3.86-1.62c-2.53-.31-5.41.76-8.79,3.26a37.71,37.71,0,0,0-9,9.79l0,.08A74.44,74.44,0,0,0,179.78,106c-1.47,8.93-2.82,11.92-3.89,12.82Z" style="fill:#fafafa"/>
      <path d="M207.84,65.91a7.74,7.74,0,0,1,3.67,1.54,27.57,27.57,0,0,1,3.36,3,33.12,33.12,0,0,0,3,2.72,16,16,0,0,0,6.25,3,10.19,10.19,0,0,1,4,1.76,9.14,9.14,0,0,1,2,2.4c3.13,5.16,2.8,22.15-1.82,31.79-1.52,3.15-4.8,5.57-7.18,5.28s-2.79-3.37-2.79-5.18-1.92-4.38-3.78-6.75a26.5,26.5,0,0,1-2.51-3.55l-.89-1.78L210.5,102a43.2,43.2,0,0,1-6.63,12.17,2.07,2.07,0,0,0-.15.2c-.14.18-.3.36-.44.52l-.83,1a38.22,38.22,0,0,1-6.1,5c-2.42,1.7-4.55,3.21-5.4,5.29l-14.36-7.41c1.11-1.38,2.3-4.8,3.59-12.66,1.62-9.73,5.45-19.91,10.25-27.21l.06-.11a37.5,37.5,0,0,1,8.85-9.65c3.3-2.43,6.08-3.48,8.5-3.18h0m.1-.82c-2.39-.28-5.29.54-9.09,3.34a38.39,38.39,0,0,0-9.06,9.89l0,.08C184,87.15,180.69,98,179.38,105.93c-1.45,8.79-3,13-4.46,12.82h-.08l16.61,8.57c.73-4,6.74-5.73,11.6-11l.84-1c.18-.21.35-.4.49-.59a1.26,1.26,0,0,1,.13-.17,43.86,43.86,0,0,0,6.77-12.42c1.39,2.74,6.19,7.28,6.2,9.93,0,4,1.53,5.76,3.51,6,2.73.32,6.31-2.2,8-5.74,4.59-9.56,5.25-26.87,1.78-32.58a9.68,9.68,0,0,0-2.19-2.6c-2.89-2.37-6.14-1.46-10.26-4.72-2.19-1.72-4.08-4.13-6.34-5.74a8.84,8.84,0,0,0-4.05-1.69Z" style="fill:#EF7218;opacity:0.2"/>
      <path d="M174.84,118.74l16.61,8.57c.73-4,6.74-5.73,11.6-11l.84-1c-2.75,2.8-10.23,5.47-13.5,5.08-3.5-.43-5.22-7.31-5.65-15s1.39-20.58,5-27C184,87.15,180.69,98,179.38,105.93,177.9,114.88,176.36,119.08,174.84,118.74Z" style="fill:#EF7218;opacity:0.2"/>
      <path d="M181.19,121.92l6.61,3.52a86.06,86.06,0,0,0,8.52-11.9c1.15-1.93,2.22-3.93,3.39-6.19a27.87,27.87,0,0,1,8.94-10.06,82.37,82.37,0,0,1-2.92-8.92c-5.19,3-15.9,7.84-18.1,16.51S183.36,118.18,181.19,121.92Z" style="fill:#EF7218"/>
      <path d="M181.19,121.92l6.61,3.52a86.06,86.06,0,0,0,8.52-11.9c1.15-1.93,2.22-3.93,3.39-6.19a27.87,27.87,0,0,1,8.94-10.06,82.37,82.37,0,0,1-2.92-8.92c-5.19,3-15.9,7.84-18.1,16.51S183.36,118.18,181.19,121.92Z" style="fill:#fff;opacity:0.4"/>
      <path d="M181.19,121.92l6.61,3.52a86.06,86.06,0,0,0,8.52-11.9c-1.38,1.58-3.62,3.63-5.43,2.81-2.85-1.29-1.68-7.34.86-14s10.87-11.07,14-14c-5.19,3-15.9,7.84-18.1,16.51S183.36,118.18,181.19,121.92Z" style="fill:#EF7218;opacity:0.30000000000000004"/>
      <path d="M211.28,102.23a41.88,41.88,0,0,1-5.22-12.87c-1.74-6.65-8.56-7.52-11.16-6a7.94,7.94,0,0,1,7.54,6.8c1,6.06.87,12.92,6.61,17.27Z" style="opacity:0.30000000000000004"/>
      <path d="M212,66.78c2.18,2.18,3.6,7.53,8.12,9.43,5.38,2.25,6.3-.22,8.48,1-2.89-2.37-6.14-1.46-10.26-4.72C216.14,70.8,214.25,68.39,212,66.78Z" style="fill:#EF7218;opacity:0.2"/>
      <path d="M131.19,132.21a39.71,39.71,0,0,1,9.78-7.92c7.75-4.46,16.46-7.46,25.39-7.76s18.1,2.26,25,7.88a42.25,42.25,0,0,1,6.73,7c6.34,8.17,8.81,17.86,13.83,26.67,4.44,7.79,8.66,14.21,8.55,23.64-.09,7-3.47,17.64-15.82,25.26-11.24,7-31.52,11.08-51.76,5.15-11.44-3.35-23.74-11.18-28.49-22.58A62.08,62.08,0,0,1,119.84,164C120.2,152,123.63,140.7,131.19,132.21Z" style="fill:#fafafa"/>
      <g style="opacity:0.2">
        <path d="M167.76,117.48h0a36.59,36.59,0,0,1,23,7.69,40.63,40.63,0,0,1,6.57,6.87c3.78,4.86,6.11,10.18,8.58,15.81a113.49,113.49,0,0,0,5.17,10.75l1.15,2c4,6.86,7.38,12.79,7.27,21.14,0,4.53-1.66,16-15.35,24.44C196.24,211.1,184.57,214,173,214a70.3,70.3,0,0,1-19.75-2.8c-10.29-3-23-10.38-27.86-22A61.22,61.22,0,0,1,120.82,164c.38-12.64,4.22-23.4,11.1-31.13a38.32,38.32,0,0,1,9.54-7.72,54.19,54.19,0,0,1,24.94-7.64l1.36,0m0-1-1.4,0c-8.93.3-17.64,3.3-25.39,7.76a39.71,39.71,0,0,0-9.78,7.92c-7.56,8.49-11,19.83-11.35,31.75a62.08,62.08,0,0,0,4.61,25.62c4.75,11.4,17,19.23,28.49,22.58A71.16,71.16,0,0,0,173,215c12.8,0,24.27-3.37,31.74-8,12.35-7.62,15.73-18.22,15.82-25.26.11-9.43-4.11-15.85-8.55-23.64-5-8.81-7.49-18.5-13.83-26.67a42.25,42.25,0,0,0-6.73-7,37.71,37.71,0,0,0-23.65-7.9Z" style="fill:#EF7218"/>
      </g>
      <path d="M177.16,214.88c-9.17-.58-31.17-4.82-40.5-22.32-11.13-20.88-8.08-48.59-1.79-63.91a38.75,38.75,0,0,0-3.68,3.56c-7.56,8.49-11,19.83-11.35,31.75a62.08,62.08,0,0,0,4.61,25.62c4.75,11.4,17,19.23,28.49,22.58A71.92,71.92,0,0,0,177.16,214.88Z" style="fill:#EF7218;opacity:0.2"/>
      <path d="M201.78,181.26c-.24-.39-1.13-.43-1-.08,2.34,6.16-2.18,9.91-6.12,12-4.45,2.36-9.75,2.84-14.89,2.21a27.86,27.86,0,0,1-4.2-.88c-.41-.1-.31.37.12.59a21.5,21.5,0,0,0,8.15,2.18,20.11,20.11,0,0,0,6.78-.53,22.16,22.16,0,0,0,6.15-2.43,11.15,11.15,0,0,0,5.51-6.18A8.2,8.2,0,0,0,201.78,181.26Z" style="fill:#263238"/>
      <path d="M208.43,188.65a7.3,7.3,0,0,1-.81,0,5.71,5.71,0,0,1-4.82-2.82.81.81,0,0,0-.18-.26.24.24,0,0,0-.29,0,1.44,1.44,0,0,0-.35.67,2.35,2.35,0,0,0,.13,1.08,3.44,3.44,0,0,0,1.34,1.39,5.6,5.6,0,0,0,1.72.92,7,7,0,0,0,6.28-1.17c.15-.12.31-.34.18-.48A11.41,11.41,0,0,1,208.43,188.65Z" style="fill:#263238"/>
      <path d="M200.87,179.65c-3.8-1.36-8.54-1.53-7.75-.1,1.13,2,8.52,2.52,8.52,2.52s5-4.32,4.4-6.73C205.66,173.88,200.87,179.65,200.87,179.65Z" style="fill:#EF7218"/>
      <path d="M170.21,167.2a6.92,6.92,0,0,1-6.92,6.92,6.82,6.82,0,0,1-4.06-1.32l0,0a6.92,6.92,0,0,1,4.08-12.49,6.78,6.78,0,0,1,3.47.94A6.9,6.9,0,0,1,170.21,167.2Z" style="fill:#263238"/>
      <path d="M166.76,161.22c-.16.31-.61.11-.9.08a5.34,5.34,0,0,0-2.86.5,3.53,3.53,0,0,0-1.26,1c-.53.71-1,2,.39,1.77a3.34,3.34,0,0,1,2,.21,1.45,1.45,0,0,1,1,1.32c-.08.59-.68.94-1.25,1.09a5.63,5.63,0,0,1-4-.87,4.45,4.45,0,0,0-1.24,2.73,5.78,5.78,0,0,0,.63,3.75,6.92,6.92,0,0,1,4.08-12.49A6.78,6.78,0,0,1,166.76,161.22Z" style="fill:#fafafa"/>
      <path d="M171.34,165.54c-1.56-5.1-7.15-7-12-6.15a5.56,5.56,0,0,0-3.53,1.73,5.43,5.43,0,0,0-.94,3.55c.08,3.13,1.78,7.77,5.66,8.87a8.16,8.16,0,0,1-3.22-6.16,9.41,9.41,0,0,1,.26-3.47c.93-2.93,3.85-3.22,6.52-3a7.49,7.49,0,0,1,5.23,3.31,15.94,15.94,0,0,1,1.72,4c.15.51.55.42.59-.08A6.92,6.92,0,0,0,171.34,165.54Z" style="fill:#263238"/>
      <path d="M211.83,158.4l0,.38a6,6,0,0,1-1.24,4.09,1.12,1.12,0,0,1-1.58.37,5.12,5.12,0,0,1-1.87-1.29s0,0,0,0a6.88,6.88,0,0,1-1.65-5.43,7.53,7.53,0,0,1,.77-2.59c.23-.45.88-1.82,1.34-1.87a1.08,1.08,0,0,1,.71.25A8.28,8.28,0,0,1,211.83,158.4Z" style="fill:#263238"/>
      <path d="M210.91,162.5a6.29,6.29,0,0,0,1-3.72l0-.38a8.28,8.28,0,0,0-3.5-6.12,1.08,1.08,0,0,0-.71-.25c-.24,0-.54.42-.8.85a9.39,9.39,0,0,1,1.59,1.14,5.13,5.13,0,0,1,1.21,1.5,2,2,0,0,0-.75.44,3.71,3.71,0,0,0-.75.73,2.65,2.65,0,0,0-.41,1.22A1.33,1.33,0,0,0,208,159a1,1,0,0,0,.45.24,1.66,1.66,0,0,0,1.4-.25,2.11,2.11,0,0,0,.83-1.18,8,8,0,0,1,.33,2.33c0,.38,0,.76,0,1.13,0,.22,0,.43,0,.64A1.68,1.68,0,0,1,210.91,162.5Z" style="fill:#fafafa"/>
      <path d="M206,161.41a5.72,5.72,0,0,0,3.32,1.94,8.33,8.33,0,0,1-2.61-3.77,10.38,10.38,0,0,1,0-3.69,8.71,8.71,0,0,1,1.4-3.12c.23-.32.47-.72.32-1.08a.77.77,0,0,0-.66-.44c-1.34-.14-2.32,1.94-2.66,3a10.25,10.25,0,0,0-.39,3.74A6.25,6.25,0,0,0,206,161.41Z" style="fill:#263238"/>
      <path d="M111.1,68.42c-1.77-9.57-7.64-18.23-2.45-22.24S122.33,46,131.71,56.9c14.28,16.53,15.62,30.28,19,42.36,2.82,10.15.8,20.93,4.17,21-.28,10.29-9.74,16.94-22,13.85a.88.88,0,0,0,0-.15c2.13-7.37-2.16-9.68-7.28-14-5.33-4.54-10.21-8.8-12.82-15.4a27.62,27.62,0,0,1-1.76-7.07C109.51,84.71,112.32,75.07,111.1,68.42Z" style="fill:#fafafa"/>
      <g style="opacity:0.2">
        <path d="M132.87,134.16l.06-.15h0a10.36,10.36,0,0,0,.21-6,8,8,0,0,0-1.44-2.67,17.54,17.54,0,0,0-2.11-2.2c-3.07-2.64-6.21-5.19-9.09-8a31.06,31.06,0,0,1-7-9.69,25.45,25.45,0,0,1-1.77-5.72,27.39,27.39,0,0,1-.42-3c-.11-1-.19-2-.24-3a91.91,91.91,0,0,1,.2-12.08c.14-2,.32-4,.44-6.06a35.88,35.88,0,0,0-.05-6.13c-.56-4.09-2-7.92-3.21-11.76A29.9,29.9,0,0,1,107,51.9a8.08,8.08,0,0,1,.17-2.87,4.63,4.63,0,0,1,1.48-2.32A7.14,7.14,0,0,1,114,45.07a14.23,14.23,0,0,1,5.57,1.82,39.75,39.75,0,0,1,9.34,7.49,76.29,76.29,0,0,1,13.73,19.75,75.43,75.43,0,0,1,4.22,11.32c1.14,3.87,2,7.82,3.07,11.73.54,2,1.11,3.89,1.46,5.88s.61,4,.78,6l.48,6a20.11,20.11,0,0,0,.45,3,4.79,4.79,0,0,0,.54,1.42,1.52,1.52,0,0,0,1.23.78,1.51,1.51,0,0,1-1.21-.79,5.16,5.16,0,0,1-.52-1.42,23,23,0,0,1-.4-3l-.37-6c-.14-2-.35-4-.68-6s-.87-4-1.37-5.93c-1-3.92-1.86-7.87-3-11.77a76.21,76.21,0,0,0-4.14-11.44,74.77,74.77,0,0,0-13.77-20,40.05,40.05,0,0,0-9.5-7.67,14.73,14.73,0,0,0-5.87-1.92,8,8,0,0,0-5.95,1.81,5.51,5.51,0,0,0-1.72,2.73,8.89,8.89,0,0,0-.18,3.16,31.25,31.25,0,0,0,1.45,6c1.24,3.85,2.67,7.66,3.22,11.61a35.32,35.32,0,0,1,.07,6c-.12,2-.29,4-.42,6a85.21,85.21,0,0,0-.13,12.17c.06,1,.16,2,.27,3s.26,2,.46,3a26,26,0,0,0,1.86,5.82,31.08,31.08,0,0,0,7.23,9.76c2.93,2.81,6.13,5.31,9.23,7.89a17.94,17.94,0,0,1,2.12,2.15,7.71,7.71,0,0,1,1.47,2.6,10.26,10.26,0,0,1-.13,6Z" style="fill:#EF7218"/>
      </g>
      <path d="M119.74,98.38v0a20.33,20.33,0,0,0,1.37,6.49c3.22,8,10.68,9.11,15,12s4.4,12.31,7.64,11.1c2.82-1,2.9-6.15,2.12-12.59-1.32-11.15-5.44-23.16-10.65-33.71A50.3,50.3,0,0,0,132.61,77c-4.68-7.51-9.85-11.12-12.07-8.43-2.34,2.84.52,5.76.58,12.86C121.17,86.66,119.44,92.5,119.74,98.38Z" style="fill:#EF7218"/>
      <path d="M119.74,98.38v0a20.33,20.33,0,0,0,1.37,6.49c3.22,8,10.68,9.11,15,12s4.4,12.31,7.64,11.1c2.82-1,2.9-6.15,2.12-12.59-1.32-11.15-5.44-23.16-10.65-33.71A50.3,50.3,0,0,0,132.61,77c-4.68-7.51-9.85-11.12-12.07-8.43-2.34,2.84.52,5.76.58,12.86C121.17,86.66,119.44,92.5,119.74,98.38Z" style="fill:#fff;opacity:0.4"/>
      <path d="M112.82,104.58c2.61,6.6,7.49,10.86,12.82,15.4,5.12,4.35,9.41,6.66,7.28,14,2.07-5.19,6.68-11.63-1.19-15S117.89,112.69,112.82,104.58Z" style="fill:#EF7218;opacity:0.2"/>
      <path d="M119.74,98.42a20.33,20.33,0,0,0,1.37,6.49c3.22,8,10.68,9.11,15,12s4.4,12.31,7.64,11.1c2.82-1,2.9-6.15,2.12-12.59-1.32-11.15-5.44-23.16-10.65-33.71A50.3,50.3,0,0,0,132.61,77v0c4.56,8.81,9.89,27.88,6,31S122,109.1,119.74,98.42Z" style="fill:#EF7218;opacity:0.30000000000000004"/>
    </g>
  </g>
</svg>