<svg xmlns="http://www.w3.org/2000/svg" viewBox="0 0 500 500"><g id="freepik--background-complete--inject-14"><path d="M417.9,470.24a153.17,153.17,0,0,0,3.51-33.06,93.44,93.44,0,0,0-11.23,31.88,106.79,106.79,0,0,0-11.42-29.4,145.64,145.64,0,0,0,2.47,34.59L383,457.52c5.68,10,11.8,20.51,21.15,25.74h15.55c6.24-6.42,11.94-18.82,15.89-26.78Z" style="fill:#ebebeb"></path><path d="M102.65,470.24a165.19,165.19,0,0,0,3.27-33.06,97.87,97.87,0,0,0-10.45,31.88,111.53,111.53,0,0,0-10.62-29.4,156.21,156.21,0,0,0,2.3,34.59l-17-16.73c5.28,10,11,20.51,19.67,25.74H104.3c5.81-6.42,11.11-18.82,14.78-26.78Z" style="fill:#ebebeb"></path><path d="M439.64,130.27c.81-6.76-7.5-12.33-13.74-12.91-3-.27-6.07.25-8.89-.88C410.9,114,408.46,105,402.5,102.07c-4.46-2.16-9.59-.24-13.91,2.26s-8.59,5.65-13.42,6c-4.2.31-8.76-1.48-12.43.88-2.74,1.76-4.17,5.38-6.7,7.52s-5.69,2.54-8.75,2.73-6.23.23-9,1.69-5.1,4.86-4.52,8.32Z" style="fill:#fafafa"></path><path d="M304.23,210.08c.63-5.32-5.9-9.7-10.8-10.15-2.34-.22-4.77.19-7-.69-4.8-1.93-6.72-9.06-11.41-11.33-3.5-1.7-7.54-.19-10.93,1.78s-6.75,4.43-10.55,4.71c-3.3.25-6.89-1.16-9.77.69-2.16,1.38-3.28,4.23-5.27,5.92s-4.47,2-6.88,2.14-4.9.18-7.09,1.33A6.6,6.6,0,0,0,221,211Z" style="fill:#fafafa"></path><path d="M140,415.44c.78-6.57-7.23-12-13.25-12.53-2.86-.27-5.84.24-8.56-.85-5.89-2.38-8.24-11.18-14-14-4.3-2.09-9.24-.23-13.41,2.2s-8.28,5.48-12.93,5.82c-4.05.3-8.44-1.44-12,.85-2.64,1.71-4,5.22-6.46,7.3S54,406.7,51,406.89s-6,.22-8.7,1.64-4.91,4.71-4.35,8.07Z" style="fill:#fafafa"></path><path d="M474.14,275.54c.63-5.32-5.86-9.7-10.73-10.15-2.33-.22-4.74.19-6.94-.69-4.77-1.93-6.68-9.06-11.34-11.33-3.48-1.7-7.48-.19-10.86,1.78s-6.71,4.43-10.48,4.71c-3.28.25-6.84-1.16-9.71.69-2.13,1.38-3.25,4.23-5.22,5.92s-4.45,2-6.84,2.14-4.87.18-7,1.33a6.6,6.6,0,0,0-3.53,6.54Z" style="fill:#fafafa"></path><path d="M296.47,36.54c.47-4-4.42-7.27-8.1-7.61-1.76-.16-3.58.15-5.24-.52-3.61-1.44-5-6.79-8.56-8.5-2.63-1.27-5.65-.14-8.2,1.34s-5.07,3.33-7.91,3.53c-2.48.19-5.17-.87-7.33.52-1.62,1-2.46,3.18-3.95,4.44A8.59,8.59,0,0,1,242,31.35a12.88,12.88,0,0,0-5.32,1A5,5,0,0,0,234,37.25Z" style="fill:#fafafa"></path><path d="M360.2,37.19s23.62-6.29,28.19,22.16l1.4-10.07,2,6.15,1.71-6.91,1.73,12.41s1.33-24.81,22.52-27.17c0,0-11.38,6.11-6.65,17.58,0,0-7.13,1.31-8.52,11.38a19.15,19.15,0,0,0-9.92,12.53S389,61.05,377.36,61.74c0,0,4.45-11.73-6.47-14.94C370.89,46.8,370.07,39.62,360.2,37.19Z" style="fill:#ebebeb"></path><path d="M125.78,355.45s23.74-5.82,27.74,22.72l1.6-10,1.92,6.19,1.85-6.88,1.48,12.45s1.83-24.78,23.06-26.72c0,0-11.5,5.89-7,17.44,0,0-7.14,1.17-8.74,11.22a19.12,19.12,0,0,0-10.16,12.33s-3.43-14.27-15.07-13.82c0,0,4.68-11.64-6.17-15.07C136.28,365.27,135.6,358.08,125.78,355.45Z" style="fill:#ebebeb"></path><path d="M379.75,175.17S405.8,172,411,184.62l2.84-4.89,1,4.74,4.54.12s1.41-5.69,1.4-4.7,1.89,4.74,1.89,4.74,10.3-11.57,29.06-4.39c0,0-12.24-2.14-14.15,8,0,0-8.48-3.68-9.63,5,0,0-6.14,1-6.36,7.26,0,0-3.69-4-4.48-4.36-.42-.2-5.24,4.24-5.24,4.24s.84-8.06-6.48-8.14c0,0,1.9-9-9.79-6.55C395.63,185.66,399.16,177.78,379.75,175.17Z" style="fill:#ebebeb"></path><path d="M313.21,420.56s20.51,1,22.88,11.44l2.84-3.39.13,3.79,3.48.7s1.85-4.21,1.71-3.45a17.8,17.8,0,0,0,.83,3.91s9.48-7.55,23,.48c0,0-9.15-3.28-12,4.29,0,0-6-4-8.08,2.55,0,0-4.86-.06-5.87,4.75a36.53,36.53,0,0,0-2.87-3.95c-.3-.22-4.61,2.57-4.61,2.57s1.72-6.1-3.92-7.14c0,0,2.65-6.65-6.68-6.35C324.06,430.76,327.83,425.15,313.21,420.56Z" style="fill:#ebebeb"></path><path d="M159.71,46.23s17.57-2.29,21.18,6.2l1.89-3.32.7,3.19,3.06.06s.92-3.85.92-3.18a15.65,15.65,0,0,0,1.3,3.19s6.89-7.87,19.59-3.13c0,0-8.27-1.38-9.5,5.48,0,0-5.75-2.44-6.47,3.41a5.16,5.16,0,0,0-4.25,4.93,31.74,31.74,0,0,0-3-2.91c-.29-.14-3.51,2.89-3.51,2.89s.52-5.44-4.43-5.46c0,0,1.23-6-6.65-4.36C170.49,53.22,172.83,47.88,159.71,46.23Z" style="fill:#ebebeb"></path><path d="M36.2,334.13s18.71-3.25,23,5.68L61,336.17l.89,3.39,3.28-.08S66,335.32,66,336a16.71,16.71,0,0,0,1.54,3.36s7-8.74,20.83-4.24c0,0-8.92-1.1-9.92,6.3,0,0-6.27-2.35-6.78,3.95a5.54,5.54,0,0,0-4.33,5.47,33.22,33.22,0,0,0-3.39-3c-.31-.13-3.63,3.26-3.63,3.26s.31-5.86-5-5.65c0,0,1-6.54-7.31-4.37C48.06,341.13,50.32,335.3,36.2,334.13Z" style="fill:#ebebeb"></path><path d="M128.4,97c.81-6.76-7.5-12.33-13.74-12.91-3-.27-6.07.25-8.89-.88-6.11-2.45-8.55-11.52-14.51-14.41-4.46-2.17-9.59-.24-13.91,2.26s-8.6,5.64-13.42,6c-4.2.31-8.76-1.48-12.44.88-2.73,1.75-4.17,5.38-6.69,7.52S39.11,88,36.05,88.21s-6.24.22-9,1.69-5.09,4.86-4.51,8.32Z" style="fill:#fafafa"></path><circle cx="310.92" cy="118.58" r="67.83" style="fill:#f5f5f5"></circle><path d="M336.55,76.64l-1.91-1.46a1.7,1.7,0,0,1-.54-.56,3,3,0,0,1-.16-.84,2.13,2.13,0,0,0-2.31-1.71c-.41-1-.5-2.17-.87-3.23a3.21,3.21,0,0,0-2.23-2.27,6,6,0,0,1-1.28-.18,6.32,6.32,0,0,1-1.12-.9c-1.27-1-3.5-.44-4.31-1.82a10.67,10.67,0,0,0-.49-1,2.43,2.43,0,0,0-1.19-.72c-1.61-.57-3.39-1.15-5-.51a8,8,0,0,1-1.67.7c-.67.11-1.4-.14-2,.13-.37.16-.67.5-1.08.52a1.52,1.52,0,0,1-.8-.28,8.27,8.27,0,0,0-5.17-1.15,2.82,2.82,0,0,1,.66-.36,5.54,5.54,0,0,1,.55-.14,2.22,2.22,0,0,0,1.15-.74l-.11-.2c-.24.16-.56,0-.79-.17a1.22,1.22,0,0,0-.75-.39,2.08,2.08,0,0,0-.41.11c-.6.13-1.16-.38-1.78-.39a2,2,0,0,0-.59.11A7.06,7.06,0,0,0,300,60.48a.91.91,0,0,0-.21.23.68.68,0,0,0-.05.4,1.5,1.5,0,0,0,.8,1.1,2.37,2.37,0,0,0,1.49.11l.15,0a2.86,2.86,0,0,0-.8,1,2.11,2.11,0,0,0,.19,2.25c-.59.39-1.23-.53-1.93-.59-.52,0-.95.37-1.3.76l-1.42,1.59-1.68-.47a1.29,1.29,0,0,0-.82-.05,2.37,2.37,0,0,0-.65.53,1.46,1.46,0,0,1-2-.23,1,1,0,0,1-.13-.22,1,1,0,0,0,.51-.55.59.59,0,0,0-.61-.37,1.4,1.4,0,0,1,.56-.88c.4-.27,1-.38,1.17-.82l.91-.58a.78.78,0,0,0,.28-.26.28.28,0,0,0,0-.33c.55-.58-.13-2,.47-2.71a1.46,1.46,0,0,1,1.7-.13,5.21,5.21,0,0,0,1.69.71c.92.07,1.67-.67,2.38-1.27a2.47,2.47,0,0,1,2.49-.68c-.25-.1.48-1.25.91-1.21.26,0,.28.43.48.53,1.25.68,2.83-.21,4.2-.37a17.44,17.44,0,0,1,5.2.2c.11-.45-.39-.79-.82-1a24.55,24.55,0,0,0-4.69-1.69,14.32,14.32,0,0,0-8.65,1.05,4.78,4.78,0,0,1-2.09.6c-.36,0-.71-.14-1.06-.14a2.5,2.5,0,0,0-1.66.79,2.78,2.78,0,0,0-1.49.46,6,6,0,0,0-.59.39c.12.17.39.07.57,0a3.31,3.31,0,0,1,1.06-.35l-.22.24c-.43.5-1.06.38-1.72.45a3.11,3.11,0,0,0-.68.11,1.5,1.5,0,0,0-.59.41l.64-.75a.81.81,0,0,0,.26-.61,2.06,2.06,0,0,0,1.66-.89.67.67,0,0,1,.22-.25c.19-.09.43,0,.62,0s.24-.25.33-.4a2.45,2.45,0,0,1,1.07-.83l2-1-.8-.11a2.91,2.91,0,0,0-.56.06h-.06a15.8,15.8,0,0,0-6.35,1.74c-.17.08-.34.17-.52.24a4.77,4.77,0,0,1-.51.13,16.27,16.27,0,0,0-3.16,1.26l-5.74,2.78c-.2.1-.44.28-.38.5l1.18.12a6.59,6.59,0,0,0-2.41,1.17,2.05,2.05,0,0,1-.74.43c-.16,0-.33,0-.49,0a1.58,1.58,0,0,0-.61.33L271,67.67a21,21,0,0,0-3.19,2.68,31.09,31.09,0,0,0-3.28,3.52c-.7,1.09-1.14,2.34-1.92,3.38l1.66-1.3a4.45,4.45,0,0,0,.72-.65c.17-.2.31-.43.46-.64a14.83,14.83,0,0,1,1.29-1.56,3.53,3.53,0,0,1,.71-.63c.18-.11.37-.18.53-.3a7.14,7.14,0,0,0,.56-.54.73.73,0,0,1,.71-.2c-.21.35-.42.7-.66,1a.89.89,0,0,1-.29.29,1.67,1.67,0,0,1-.43.1c-.63.14-1,.8-1.22,1.39l.75,0a.42.42,0,0,1-.06.4,18.57,18.57,0,0,1-2.17,3.54,5.2,5.2,0,0,0,1.05-2.62,10.07,10.07,0,0,0-2.27,2.2,2.81,2.81,0,0,1-1.68,1.08,1.67,1.67,0,0,1,.27-.84c-.7,0-1.16.69-1.48,1.31L259.17,83,258,85.44,257,87.31a.88.88,0,0,0-.12.76,16.22,16.22,0,0,0,2.43-3,3.09,3.09,0,0,1,.4-.55c.16-.17.37-.3.54-.46.7-.62,1-1.62,1.77-2.13,0,.75-.71,1.28-1.22,1.84a5.23,5.23,0,0,0-1.14,2,3,3,0,0,1-.26.71c-.13.22-.32.39-.46.6a2.57,2.57,0,0,0-.19,1.58.32.32,0,0,0,0,.09c.05.06.15,0,.21,0l1.45-.91a3.08,3.08,0,0,0,.17,1.3,1.5,1.5,0,0,1-.16,1.27A4.41,4.41,0,0,0,259,93.23a3.39,3.39,0,0,1-.84,2.49c-.15.12-.34.23-.4.42a1.17,1.17,0,0,0,.08.55c.15.69-.44,1.29-.86,1.87a1.38,1.38,0,0,0-.27.54,2.45,2.45,0,0,0,0,.54,2.41,2.41,0,0,1-.24,1.21l.93.55a1.16,1.16,0,0,1,.4.33,3.59,3.59,0,0,1,.24.53c.14.26.42.45.5.74a1.62,1.62,0,0,1,0,.44,4,4,0,0,0,.5,2.28,2.69,2.69,0,0,1,.32.66c.12.54-.23,1.12,0,1.63-.19,0-.09.35.05.49a.89.89,0,0,0,.54.17.65.65,0,0,1,.52.21c.21.29-.08.67-.19,1a1,1,0,0,0,.25,1c.14.13.33.26.31.45s-.3.28-.5.38c-.56.29-.55,1.12-.3,1.7a4.56,4.56,0,0,1,.66,1.76,1.4,1.4,0,0,1,1.17.94c.05.16.09.36.26.42s.38-.14.45-.34c.26-.7,0-1.54.42-2.18a6.24,6.24,0,0,1,.7-.76.91.91,0,0,0,.24-.94c-.09-.19-.27-.31-.37-.49s-.06-.48.15-.5a1.57,1.57,0,0,1,.6.87h.8c0,.41,0,.83,0,1.24a1.45,1.45,0,0,0-.51,1.56.72.72,0,0,0,.34.45c.12,0,.26.06.38.11.67.26.42,1.58,1.12,1.71.29.06.57-.15.86-.13s.5.16.64,0,.05-.3,0-.45a2.33,2.33,0,0,1,0-1.43,6.48,6.48,0,0,1-.51-1.93l.2-.11a2.85,2.85,0,0,1,.86,1c.12.26.15.55.29.8a.61.61,0,0,0,.7.34.65.65,0,0,0,.31-.68,2.56,2.56,0,0,1,0-.78c.1-.51.66-.77,1.16-1,.05.18-.18.3-.32.42a1.26,1.26,0,0,0-.3,1.18,3.35,3.35,0,0,0,.65,1.82,1.53,1.53,0,0,0,1.77.47c.72-.37.84-1.34.85-2.15.23-.12.56-.21.69,0s0,.35,0,.53.43.54.46.87a1,1,0,0,1-.19.53c-.27.43-.45,1.1,0,1.37a1.47,1.47,0,0,0,.37.13,1.58,1.58,0,0,1,1.08,1.45.51.51,0,0,1,0,1c-.1,0-.22,0-.29.08s.05.49-.12.63-.13,0-.2.08c-.37.13-.31.65-.28,1a2.57,2.57,0,0,1-1,2.3,1.45,1.45,0,0,1-1.73.15,4.22,4.22,0,0,1-.56-.69.76.76,0,0,0-.77-.3.81.81,0,0,0-.3.22,3.88,3.88,0,0,0-1.3,1.89,2.71,2.71,0,0,1-.17.76,3.94,3.94,0,0,1-.64.72,1.45,1.45,0,0,0-.33,1.13c.22.27-.11.62-.25.93s-.37.58-.49.9a3.09,3.09,0,0,0,.22,2.1,5.45,5.45,0,0,0,1.38,2.46,6.51,6.51,0,0,0,.6.43,5.73,5.73,0,0,1,2.09,2c.5.13,1.07-.31,1.51,0a1.15,1.15,0,0,1,.35.46c.23.47.47.94.71,1.41a2.36,2.36,0,0,0,.74,1,.83.83,0,0,0,1.12-.13c.28-.43-.06-1,.11-1.51.23-.64,1.26-.8,1.35-1.49,0-.29-.11-.64.1-.84a1.17,1.17,0,0,1,.32-.15.84.84,0,0,0,.47-1c.85-.07,1.89,0,2.31.7.09.16.26.38.4.26a8.66,8.66,0,0,1-.06-2.78,2.07,2.07,0,0,0,.07-.78c-.16-.75-1.24-.9-1.6-1.58s.34-1.91-.21-2.62c-.33-.43-1-.5-1.29-1a3,3,0,0,0-.21-.52,1.6,1.6,0,0,0-.46-.35,2.2,2.2,0,0,1-.64-2,5.2,5.2,0,0,0,0-2.22,3.18,3.18,0,0,1-.26-.79.9.9,0,0,1,.86-1,.84.84,0,0,1,.79,1,2.43,2.43,0,0,1-.55.81.78.78,0,0,0-.16.9.65.65,0,0,1,.28,1.13c-.12.09-.26.13-.38.22a.8.8,0,0,0,0,1c.21.32.53.54.77.84a1.33,1.33,0,0,0,.42.43,1.13,1.13,0,0,0,.32.06l.86,0a.86.86,0,0,0,.32,0,1.18,1.18,0,0,0,.43-.31,5.47,5.47,0,0,1,1.59-.92,1.34,1.34,0,0,1,.62-.17c.5,0,.8.55,1.14.92a5.12,5.12,0,0,0,1.89,1.14,5.74,5.74,0,0,0,.17-3.63,9.16,9.16,0,0,0-1.79-2.29,2.83,2.83,0,0,1-.81-2.59l.48-.25a2.76,2.76,0,0,1,1.49,1.6,16.38,16.38,0,0,1,.31,1.7,4.34,4.34,0,0,0,1.24,2.2c0-.66,0-1.32,0-2a.69.69,0,0,1,.14-.53.66.66,0,0,1,.53-.1,7.4,7.4,0,0,1,1.61.38,1,1,0,0,1,.43.24,1,1,0,0,1,.19.6c.09.8.11,1.78-.58,2.22-.5.32-1.25.23-1.6.71-.23.33-.19.82-.49,1.08s-.43.19-.55.38.08.69,0,1-.24.42-.17.63.18.21.28.3c.48.42.37,1.17.23,1.79l-.36,1.53a4.32,4.32,0,0,0-.8-2.93,3.26,3.26,0,0,1-1.64-.28,1.49,1.49,0,0,0-1.57.26,1.46,1.46,0,0,0-.09,1.35,3.59,3.59,0,0,1,.34,1.35c0,.57-.43,1.19-.12,1.67l.69.29c.36.16.8.57.53.87s-.87.15-.83.5a.38.38,0,0,0,.13.22c.52.55,1.11,1.25.85,2a1.45,1.45,0,0,1,1.15.33,7.23,7.23,0,0,1,2.17,2.3c.17.29.32.58.49.86.38,0,.49-.52.45-.9-.07-.59-.14-1.17-.2-1.76a8.17,8.17,0,0,0-.24-1.31c-.18-.61-.51-1.16-.72-1.76a2.27,2.27,0,0,1,0-1.84,3.11,3.11,0,0,1,1.41,2.14c0,.31,0,.62.09.93.16,1,.8,1.81.91,2.79a2.49,2.49,0,0,0,.2,1,1.47,1.47,0,0,0,.43.43l1.9,1.46c.15.12.27.39.45.3l-.74-2.48,1.55,1.3a1.44,1.44,0,0,1,.23-1.16.92.92,0,0,1,1.09-.3.68.68,0,0,1,.21,1,2.5,2.5,0,0,1,2.92-.28,2,2,0,0,0,.71.36c.49.06,1-.41,1.43-.19s.54,1.05,1,1c.3,0,.53-.4.81-.31,0,.24.07.48.11.72.79-.08,1.78-.33,1.91-1.12a2.83,2.83,0,0,1,.06-.42,1.23,1.23,0,0,1,.4-.45,3.51,3.51,0,0,0,1.34-1.91,1.76,1.76,0,0,0-.93-2c-.19-.16,0-.48.19-.64s.45-.39.34-.62-.24-.2-.34-.32c-.26-.33.13-.88-.12-1.21a1.39,1.39,0,0,0-.49-.28A1,1,0,0,1,304,132a3,3,0,0,1,1.41-.84l1.52-.56c.4-.15.87-.39.88-.81s-.21-.68,0-.86.33,0,.5-.09c.4-.1.47-.65.44-1.06l-.06-.91a1,1,0,0,1,0-.39c.09-.24.34-.37.55-.53s.37-.45.22-.66l-2.06.08a1.53,1.53,0,0,1-.9-.13.54.54,0,0,1-.21-.77l-.5-.17,0-1.17a.7.7,0,0,1,.06-.32.67.67,0,0,1,.26-.24l1-.65a.83.83,0,0,0,.46.89c.3,0,.35-.44.21-.7s-.38-.55-.25-.83c0-.09.13-.17.18-.27.26-.48-.49-1-.34-1.54l-1.69-.44a3.55,3.55,0,0,0-.44-.6,22.42,22.42,0,0,1-4.95.55H300a4.8,4.8,0,0,0,.09,1.31l.8-.67a7.25,7.25,0,0,0,.26,2.49.77.77,0,0,1,0,.63c-.12.18-.35.23-.49.38-.42.47.39,1.23.1,1.78-.62,0-1.14-.86-1.69-.57a3.75,3.75,0,0,1-.36.24c-.32.09-.58-.3-.55-.62s.21-.62.25-.94a4.58,4.58,0,0,0-.31-1.39,9.84,9.84,0,0,0-.21-1.34c-.16-.42-.67-.78-1.06-.54a1.77,1.77,0,0,0-.4-1.1,22.51,22.51,0,0,1-9.74-4.24.71.71,0,0,0-.14.1,2.11,2.11,0,0,0-.35,1.55c0,.55-.16,1.21-.69,1.36-.45-.35-.37-1.14-.83-1.48-.22-.16-.52-.18-.74-.33a1.52,1.52,0,0,1-.46-1.17,2.38,2.38,0,0,1,.45-2,2.28,2.28,0,0,1,.3-.21c-4.06-4.1,16.17-1.77,16.17-8,0-4.31-1-6.46-1.82-7.41a18.82,18.82,0,0,0,5.84.68c7.64,0,10.35-20.2,14.47-14.43a1.8,1.8,0,0,1,1.63-.5c1.83.4,2,3.16,3.56,4.14l2.13,0a1.92,1.92,0,0,0,1.87.92,2.34,2.34,0,0,0,2.11-1.87,2,2,0,0,0-1.59-2.21,5.87,5.87,0,0,1-.94-.09c-.3-.1-.57-.42-.46-.71.53-.72,1.68-.45,2.37.11s1.25,1.34,2.1,1.59c.46-1.23,2.38-1.54,2.57-2.84a4.62,4.62,0,0,1,.1-1c.29-.66,1.37-.75,1.54-1.46a2.53,2.53,0,0,0-.09-.9A1.62,1.62,0,0,1,336.55,76.64Z" style="fill:#ebebeb"></path><path d="M321.79,86.9a3.16,3.16,0,0,0-.94-.46,22,22,0,0,1,1.53,4.23,3.71,3.71,0,0,0,.54-.44C322.87,89,322.74,87.64,321.79,86.9Z" style="fill:#ebebeb"></path><path d="M282.41,89.72a.27.27,0,0,0,.13,0,.65.65,0,0,0,.13,0c.16,0,.31.07.44.17s.31.2.45.11a.36.36,0,0,0,.06-.43,1.28,1.28,0,0,1-.15-.44,1.46,1.46,0,0,1,0-.22.64.64,0,0,0-.32-.65.67.67,0,0,0-.73.05.9.9,0,0,1,.22.42.31.31,0,0,1-.24.34c-.12,0-.22-.07-.33-.1a.36.36,0,0,0-.41.21A1.88,1.88,0,0,0,282.41,89.72Z" style="fill:#ebebeb"></path><path d="M322.87,62.7a2.64,2.64,0,0,0,3.44.91.46.46,0,0,0,.18-.13c.23-.27,0-.67-.22-.94A3.66,3.66,0,0,0,322.87,62.7Z" style="fill:#ebebeb"></path><path d="M316.46,58.26l1.74.21c.29,0,.69.26.53.51-.41-.08-.75.43-.65.83a1.41,1.41,0,0,0,.86.86c2.49,1.15,5.5-.78,8.11.07,1.39.45,2.44,1.63,3.81,2.12.57.21,1.3.44,1.33,1,0,.15,0,.3,0,.46a1,1,0,0,0,.94.9,6.08,6.08,0,0,0,1.41-.06,4,4,0,0,1,2.72.89c.21.18-.14.45-.34.65-.44.44.05,1.26.67,1.37a3.57,3.57,0,0,0,1.81-.42,4.91,4.91,0,0,1,3.42-.09A3.38,3.38,0,0,1,345,70.12a.57.57,0,0,1-.1.51.54.54,0,0,1-.41.14,3.64,3.64,0,0,1-3.46-2.1.83.83,0,0,0-.28-.42.55.55,0,0,0-.25-.07c-.86,0-1.29,1.19-.87,1.94a3.7,3.7,0,0,0,2.1,1.4,11.73,11.73,0,0,0,6.66.86,41.1,41.1,0,0,0,6.74-.93l-1-1.41a6.77,6.77,0,0,0-1.94-2c-1.57-.91-3.73-.49-5.13-1.64a6.12,6.12,0,0,0-1.2-1,3.18,3.18,0,0,0-1.11-.22,41,41,0,0,0-5.54.07A3.5,3.5,0,0,1,337.3,65c-1-.48-1.22-1.71-1.88-2.57a6.31,6.31,0,0,0-2.11-1.56L332,60.19a4.15,4.15,0,0,0-.89-.39c-.63-.18-1.31,0-1.95-.17a5.54,5.54,0,0,1-1.67-.74l-3.08-1.81a2.46,2.46,0,0,0-1.06-.43c-.8-.08-1.59.58-2.37.36a2.92,2.92,0,0,1-.77-.43,3.63,3.63,0,0,0-4.38.53.81.81,0,0,0-.27.55C315.56,58.06,316.06,58.21,316.46,58.26Z" style="fill:#ebebeb"></path><path d="M373.66,137.37a4.65,4.65,0,0,0-.77-1.42,6.39,6.39,0,0,0-1.17-.9A7.33,7.33,0,0,1,369,131.2a2,2,0,0,0,.89-1.48,11.9,11.9,0,0,0-.07-5c-.46-1.84-1.54-3.24-3.69-2.66a2.28,2.28,0,0,1-.73.12c-1-.06-1.76-1.49-2.61-1-.74-.34-.06-1.59-.51-2.27-.2-.31-.64-.5-.63-.87,0-.21.18-.37.26-.57a1,1,0,0,0-.82-1.18,2.07,2.07,0,0,0-1.52.51,8.2,8.2,0,0,1-1.32,1,4.38,4.38,0,0,1,1.08,3.88,4,4,0,0,1-2.72-.49,1.44,1.44,0,0,0-.54-.35.84.84,0,0,0-.54.07A6.67,6.67,0,0,0,353,123l-.16.21a5.39,5.39,0,0,0-2.11-2.37c-.71.09-1,1-.92,1.68s.49,1.35.56,2.06c-.3.81-1.75.13-2.33.77a1.05,1.05,0,0,0,0,1.23c.23.37.57.67.78,1.06l-1.66,2.66c-.11-.37-.28-.81-.66-.88s-.86.52-1,1-.27,1.16-.79,1.26c.21.66,1.3.27,1.84.71s.3,1,.34,1.48.56,1.14,1,.82a.94.94,0,0,0,.27-.63,10.16,10.16,0,0,1,2.11-4.83,2.35,2.35,0,0,0,.68-1.31c0-.43-.27-.86-.11-1.26s1-.5,1.55-.73a2.32,2.32,0,0,1-.45.64c-.31.32-.71.58-.85,1s.09,1.08-.17,1.53a2.66,2.66,0,0,1-.56.55,3.53,3.53,0,0,0-.83,2.13,9.16,9.16,0,0,0,.16,4.77,13.68,13.68,0,0,1,1.06,2.35c-.45.35-1.09,0-1.49-.41s-.9-.87-1.45-.72-.79.6-1.19.43a2.67,2.67,0,0,0-1.36-3,.67.67,0,0,1-.4-.68c-.62,0-.9.74-1,1.34s-.47,1.36-1.08,1.26c-.2,0-.39-.17-.59-.16-.46,0-.6.68-1,.89s-.76,0-1.09.21-.38.43-.6.6c-.56.44-1.35,0-1.92-.38s-1.4-.79-1.92-.32-.34,1.07-.67,1.53-1.39.7-1.48,1.4a1.1,1.1,0,0,0-1.56.11,4,4,0,0,0,.73,2.21,4.27,4.27,0,0,1-1.54,1.05,10.49,10.49,0,0,0,.93,1.83c-.57.36-.4,1.33-.94,1.73-.32.23-.76.17-1.14.26s-.76.53-.52.84a.85.85,0,0,1-1.34.43c-.35-.42-.46-1-.87-1.37-.6-.53-1.55-.32-2.29-.64a5.85,5.85,0,0,0-.68-.3c-.77-.2-1.47.62-1.55,1.41a9.43,9.43,0,0,0,.37,2.34,2.07,2.07,0,0,1-.66,2.15c-.33.21-.77.26-1,.57-.52.61.15,1.49.29,2.28a3.4,3.4,0,0,1-.23,1.6c-.28.88-.81,1.93-1.73,1.87-.72-.05-1.16-.8-1.4-1.49a3.1,3.1,0,0,0-1.09-1.82c-1.15-.64-2.61.65-3.85.23l.3.83c-.58.14-.72.9-.61,1.48a3.18,3.18,0,0,1,.15,1.74c-.26.66-1,.89-1.74,1.05a5.1,5.1,0,0,1,.12,2.33c.26.27-.32,1-.69,1a4.32,4.32,0,0,1-1.12-.12,1.67,1.67,0,0,0-1.72,1.28l2.31.66a1.82,1.82,0,0,0,.83.09,1.87,1.87,0,0,0,.74-.47c1.79-1.51,4.56-2.19,6.46-.83.38.28.77.65,1.24.6a1.56,1.56,0,0,0,.8-.42c.8-.64,1.67-1.43,1.63-2.45a3.14,3.14,0,0,1,0-.81c.15-.58.87-.78,1.31-1.18,1-1,.31-2.69-.48-3.88l2.95-1.82a1.64,1.64,0,0,1,.83-.32,2.57,2.57,0,0,1,.88.31c1.7.74,3.58-.51,4.89-1.82a3.9,3.9,0,0,0,4.59,1.1,1.45,1.45,0,0,1,.15,2,4.15,4.15,0,0,1-1.84,1.21,4.52,4.52,0,0,1,1,2,1.57,1.57,0,0,1-1,1.76l.43.77a3,3,0,0,1,1.77.11,1.35,1.35,0,0,1,.85,1.42c-1,.55-2.2.14-3.29-.15s-2.48-.33-3.1.61a5.1,5.1,0,0,1-2,2.35,1.75,1.75,0,0,0-.26-2.1c-.8-.46-1.72.34-2.24,1.09s-1.29,1.63-2.16,1.37c-.31-.09-.59-.32-.91-.31a1.22,1.22,0,0,0-.81.55,3,3,0,0,0-.94,2.14c.1.79,1.25,1.37,1.72.72-.22-.79-.33-1.84.39-2.22s1.69.6,1.5,1.45a2.52,2.52,0,0,1-1.89,1.61,16.39,16.39,0,0,0-2.52.67c-.33.15-.64.64-.32.81a1.4,1.4,0,0,0,1,.14,1.72,1.72,0,0,1-.55,1.93,1.7,1.7,0,0,1-2,0c-1.24-.9-.77-2.94-1.68-4.16a2.21,2.21,0,0,0-1.61-.87c-1.31-.07-2.39,1.05-3,2.21a2.1,2.1,0,0,1-.49.71c-.51.4-1.24.17-1.87,0s-1.49-.07-1.66.55a12.63,12.63,0,0,0,5,3.65.87.87,0,0,1,.48.33,1.42,1.42,0,0,1,0,.68,2.29,2.29,0,0,0,.87,1.61,3.15,3.15,0,0,0,1.5,1c.6.13,1.35-.26,1.36-.87,0-1.14-2.14-1.33-2.1-2.46a2.79,2.79,0,0,1,2.56.07,3.55,3.55,0,0,0,5.13,1.08c.68-.55,1.18-1.38,2-1.63,1.34-.38,2.5.9,3.76,1.48,1.61.74,3.48.31,5.2-.13l4.35-1.12-2.45-.31a12.68,12.68,0,0,0,3.75-1.78,1.54,1.54,0,0,0-1.32-1.35c1.85-.36,2.36-2.88,4-3.86a10.93,10.93,0,0,0,1.59-.84,3,3,0,0,0,.8-2.37,7.41,7.41,0,0,0-2.52-5.28,7.41,7.41,0,0,0,3.75.56c0,.78.55,1.87,1.19,1.44a1.07,1.07,0,0,0,.36-.56c.36-1,.73-1.93,1.1-2.9a5,5,0,0,1,1.11-2c.94-.87,2.46-1,3.21-2-.11.45.49.82.93.68a1.81,1.81,0,0,0,.95-1c.54-1,.75-2.63-.34-3s-2.51.5-2.9-.47a1.37,1.37,0,0,1,0-.8,9.45,9.45,0,0,1,5.26-6.27c.86-.39,2-.86,2-1.81a1.16,1.16,0,0,1,.91,1.37,2.63,2.63,0,0,0,1.9-.5c-.46-.32-.32-1.07.06-1.48s.94-.63,1.36-1c1.18-1.06,1.34-3.32,2.9-3.57,1.19.47,1,2.2.53,3.38s-1.08,2.66-.2,3.59a3,3,0,0,1,1.95-1.71,3.4,3.4,0,0,0-.34,3.62,6.33,6.33,0,0,1,3-3.09c-.07-.37-.14-.74-.22-1.11a2,2,0,0,0,2.21-1.81A5.92,5.92,0,0,0,373.66,137.37Z" style="fill:#ebebeb"></path><path d="M279.56,159.86c-.51-.37-1.11-.7-1.27-1.32-.08-.29-.06-.65-.28-.85s-.67-.19-1.07-.19a6,6,0,0,1-3.07-.73,2.84,2.84,0,0,0-.84-.4,2.42,2.42,0,0,0-1,0,6.17,6.17,0,0,0-4.27,3.49,3.06,3.06,0,0,1-.73,1.43,3,3,0,0,0-.58.53.63.63,0,0,0-.05.56,2.82,2.82,0,0,0,1.79,1.85c.32.12.69.22.78.53s-.06.56-.05.83c0,.68.9.81,1.4,1.21.65.51.66,1.5,1.25,2.07a3.68,3.68,0,0,0,1.9.71l1.92.35a5.47,5.47,0,0,0,4.63-.81,3.57,3.57,0,0,0,1.3-2.48,4.84,4.84,0,0,0-.51-2.16,1.53,1.53,0,0,0,1-1,1.49,1.49,0,0,0-.15-1.09A6.51,6.51,0,0,0,279.56,159.86Z" style="fill:#ebebeb"></path><path d="M344.15,176.3a2.64,2.64,0,0,0,2.6-.7.73.73,0,0,0,.23-.43.32.32,0,0,0-.27-.36c-.79.61-2.14.26-2.72,1.08a.3.3,0,0,0-.07.25A.3.3,0,0,0,344.15,176.3Z" style="fill:#ebebeb"></path><path d="M339.74,177.8a1.69,1.69,0,0,0-.43.15c-.54.23-1.17.21-1.72.41a4.28,4.28,0,0,0-1,.58l-1.77,1.26,3.86-.82a4.68,4.68,0,0,0,1-.28c.52-.23.93-.65,1.43-.92l-1-.31A1,1,0,0,0,339.74,177.8Z" style="fill:#ebebeb"></path><path d="M353.63,73.14a1,1,0,0,0-.8-.6,2.31,2.31,0,0,0-1,.15A12.34,12.34,0,0,0,348.91,74a2.61,2.61,0,0,0-.63.51,2.87,2.87,0,0,0-.39,2l2.16-.06a2.41,2.41,0,0,1,.6,0,5.08,5.08,0,0,1,1.1.42,3.59,3.59,0,0,0,1.49.24.81.81,0,0,0,0-.93,2.72,2.72,0,0,1-.4-.91C352.81,74.54,353.87,73.9,353.63,73.14Z" style="fill:#ebebeb"></path><path d="M350.87,84.38c.5,0,1,.16,1.5.22a2.28,2.28,0,0,0,1.48-.2,1.08,1.08,0,0,0,.53-1.28,1.65,1.65,0,0,0-.89-.77l-.93-.47a1.06,1.06,0,0,1-.51-.42c-.18-.35.08-.76.34-1.06s.55-.66.44-1a1.07,1.07,0,0,0-.39-.5,7,7,0,0,0-1.69-1,2.22,2.22,0,0,0-.74-.21,2.49,2.49,0,0,0-1,.24l-1.53.58a1.26,1.26,0,0,0-.78.58c-.12.31.21.75.5.58.25.63-.46,1.21-.63,1.87a3.6,3.6,0,0,0,1.37,3,1.68,1.68,0,0,0,.59.12C349.31,84.62,350.08,84.36,350.87,84.38Z" style="fill:#ebebeb"></path><path d="M361.36,75a1.08,1.08,0,0,0,.54.28.41.41,0,0,0,.48-.28.61.61,0,0,0-.14-.42l-.6-.94a2.69,2.69,0,0,0-.62-.76.89.89,0,0,0-.92-.14,1.45,1.45,0,0,0,.25,1.31A4.35,4.35,0,0,0,361.36,75Z" style="fill:#ebebeb"></path><path d="M365.44,80.3a4.37,4.37,0,0,1,.88.59,2.88,2.88,0,0,1,.36.61,4.2,4.2,0,0,0,1.44,1.55,3.4,3.4,0,0,0-.09-1.27,1,1,0,0,0-.2-.44,1.6,1.6,0,0,0-.49-.32,2.55,2.55,0,0,1-1-.93c-.1-.18-.18-.36-.29-.52-.33-.44-.91-.64-1.28-1a6.57,6.57,0,0,0-.48-.57.6.6,0,0,0-.68-.14l.81,1.29A3.84,3.84,0,0,0,365.44,80.3Z" style="fill:#ebebeb"></path><path d="M361.6,154.52a.62.62,0,0,0-.55-.12.3.3,0,0,0-.16.46,3.25,3.25,0,0,1-.94.16c-.32,0-.66.24-.68.56a1.69,1.69,0,0,1,0,.32c-.07.21-.36.29-.39.5s.15.32.32.33a.77.77,0,0,0,.47-.18,2.58,2.58,0,0,1,.92-.5c.35-.06.78.19.75.54a1.14,1.14,0,0,0,.94-.83A1.58,1.58,0,0,0,361.6,154.52Z" style="fill:#ebebeb"></path><path d="M354.65,102.54a4.46,4.46,0,0,0,.23,1.69l.39,1.45c.13.45.31,1,.75,1.12.24.08.52,0,.77.09.55.12.92.7,1.48.75s1.11-.65,1.17-1.3-.12-1.29,0-1.93a1.86,1.86,0,0,1,1.5-1.58,2.41,2.41,0,0,0,.81-.11,1.34,1.34,0,0,0,.54-1,3.3,3.3,0,0,0,0-1.84c-.2-.55-.7-1-.83-1.54a1,1,0,0,0-1.17.62,2.85,2.85,0,0,0-.07,1.45c0-.28-1.11.54-1.19.59a2.51,2.51,0,0,1-2.28.55C355.78,101.34,354.84,101.09,354.65,102.54Z" style="fill:#ebebeb"></path><path d="M348.19,122.08a1.65,1.65,0,0,0,.49-1,4,4,0,0,0-.11-2.26,3,3,0,0,0-3.28-1.77,1.49,1.49,0,0,1-1.06,0c-.27-.17-.36-.52-.6-.73a1.22,1.22,0,0,0-1.51.2,4.1,4.1,0,0,1-1.34,1,1.12,1.12,0,0,0-1.24-.6,1.1,1.1,0,0,0-.84,1.09c0,.64.59,1.12.87,1.7a2.62,2.62,0,0,1-.16,2.31,5.19,5.19,0,0,1-1.67,1.69,1.55,1.55,0,0,0-.49.43,1.48,1.48,0,0,0,0,1.15c.24.94.53,1.88.86,2.8.52-.31,1.13.24,1.4.78s.53,1.21,1.13,1.32,1.3-.47,1.79-.09c.16.12.25.32.43.4a.67.67,0,0,0,.5,0,2.38,2.38,0,0,0,.84-3.58A4.36,4.36,0,0,1,346,125a1.74,1.74,0,0,0,.56-.4c.38-.52-.1-1.35.28-1.88S347.78,122.39,348.19,122.08Z" style="fill:#ebebeb"></path><path d="M350.54,97.83c-.54-3.53-3.35-7.77-7.79-8.51a7.45,7.45,0,0,0-8.35,3.48,8.66,8.66,0,0,0,.74,9.22,10.37,10.37,0,0,0,8.54,3.94,7.47,7.47,0,0,0,5.48-2.28A7.31,7.31,0,0,0,350.54,97.83Z" style="fill:#ebebeb"></path></g><g id="freepik--Floor--inject-14"><path d="M466.15,483.26s.51,0,1.56,0l4.83,0v.12c-22.82.11-112.41.2-219.35.2l-159.65-.08-48.38-.08L32,483.31l-3.42,0c-.77,0-1.17,0-1.17,0l1.17,0,3.42,0,13.15,0,48.38-.09L253.19,483c106.94,0,196.53.09,219.35.21v.12l-4.83,0C466.66,483.28,466.15,483.26,466.15,483.26Z"></path></g><g id="freepik--Grave--inject-14"><path d="M276.54,483.26s8.75-50.77,5.85-78.83-16.17-50.2-44-53.61c-8.57-1.05-24.85-2.31-33.19,3.9C189,366.84,189,399.2,184.68,428.14c-6.29,42.08-8.08,54.4-8.08,54.4Z" style="fill:#e0e0e0"></path><g style="opacity:0.30000000000000004"><path d="M276.54,483.26s8.75-50.77,5.85-78.83-16.17-50.2-44-53.61c-8.57-1.05-24.85-2.31-33.19,3.9C189,366.84,189,399.2,184.68,428.14c-6.29,42.08-8.08,54.4-8.08,54.4Z"></path></g><path d="M259.11,483.26s8.43-50.77,5.52-78.83-15.48-51.27-43-53.21-48.37,34.83-54.66,76.92-4.78,54.49-4.78,54.49Z" style="fill:#e0e0e0"></path><g style="opacity:0.30000000000000004"><path d="M185.35,432.39a1.6,1.6,0,0,1-1.14-.5,1.49,1.49,0,0,1-.37-.94,1.71,1.71,0,0,1,.14-.59V415.21a2,2,0,0,1-.63.1A1.28,1.28,0,0,1,182,414a1.85,1.85,0,0,1,.84-1.44,8.74,8.74,0,0,1,2-1.18,14,14,0,0,1,2.48-.79,10.83,10.83,0,0,1,2.15-.28,7.44,7.44,0,0,1,2.86.53,7.19,7.19,0,0,1,2.18,1.35,6,6,0,0,1,1.36,1.82,4.51,4.51,0,0,1,.48,2,5.25,5.25,0,0,1-.69,2.58,6.5,6.5,0,0,1-1.91,2.15,6.28,6.28,0,0,1,2.6,2.23,5.26,5.26,0,0,1,.84,2.82,5.48,5.48,0,0,1-.35,1.92,7.07,7.07,0,0,1-2.42,3.15,6.24,6.24,0,0,1-1.86.93,12.61,12.61,0,0,1-2.65.55c-.9.08-1.79.12-2.68.12h-1C186,432.43,185.68,432.42,185.35,432.39ZM188,419.47l1.11,0a6,6,0,0,0,1.26-.26,6.58,6.58,0,0,0,1.47-.63,4.52,4.52,0,0,0,1.21-1,2.1,2.1,0,0,0,.51-1.4,2.37,2.37,0,0,0-.38-1.34,3.39,3.39,0,0,0-1-.93,4.54,4.54,0,0,0-1.35-.54,6.19,6.19,0,0,0-1.45-.18,6.8,6.8,0,0,0-2.49.46v5.75Zm5.07,4.12a5.72,5.72,0,0,0-1.77-.82,11.73,11.73,0,0,0-2-.37l-1.21.12c-.41,0-.81.05-1.21.05v7c.49,0,1.16,0,2-.07a11.49,11.49,0,0,0,2.47-.41,5.36,5.36,0,0,0,2.1-1.07,2.52,2.52,0,0,0,.9-2.06,3,3,0,0,0-.32-1.34A2.59,2.59,0,0,0,193,423.59Z"></path><path d="M219.16,423.13a19.11,19.11,0,0,1-.89,2.6,18.37,18.37,0,0,1-1.37,2.6,13.57,13.57,0,0,1-1.83,2.24,7.27,7.27,0,0,1-2.26,1.54l-1,.37a6.75,6.75,0,0,1-.84.26c-.28.07-.58.14-.9.2a7.74,7.74,0,0,1-1.07.12.59.59,0,0,0-.17,0h-.21a6.11,6.11,0,0,1-1.86-.29l-1.79-.58a6.64,6.64,0,0,1-2.42-1.51,8.43,8.43,0,0,1-1.6-2.23,10.36,10.36,0,0,1-.87-2.64,14.92,14.92,0,0,1-.26-2.81c0-.35,0-.7,0-1s.06-.67.11-1a14.2,14.2,0,0,1,.61-2.41,16.77,16.77,0,0,1,1.1-2.55,15.32,15.32,0,0,1,1.53-2.3,8,8,0,0,1,1.84-1.68,9.65,9.65,0,0,1,2.63-1.21,10.2,10.2,0,0,1,2.84-.4,9.37,9.37,0,0,1,4.49,1.12,8,8,0,0,1,3.33,3.44,8.38,8.38,0,0,1,.84,2.37,12.4,12.4,0,0,1,.25,2.5c0,.54,0,1.08-.07,1.63S219.25,422.6,219.16,423.13Zm-2.81-.35c.07-.46.14-.94.2-1.42a11.64,11.64,0,0,0,.08-1.45,9.9,9.9,0,0,0-.17-1.86,5.71,5.71,0,0,0-.63-1.75,5.48,5.48,0,0,0-2.35-2.32,6.88,6.88,0,0,0-3.23-.81,5.94,5.94,0,0,0-3.58,1.16,8.18,8.18,0,0,0-1.73,1.79,11.49,11.49,0,0,0-1.26,2.24,13.57,13.57,0,0,0-.78,2.44,11.84,11.84,0,0,0-.26,2.37,9.48,9.48,0,0,0,.37,2.68,6.1,6.1,0,0,0,1.16,2.25,5.92,5.92,0,0,0,2,1.56,6.15,6.15,0,0,0,2.8.59,5.46,5.46,0,0,0,2.6-.66,7.92,7.92,0,0,0,1.81-1.37,11.07,11.07,0,0,0,1.38-1.75,12,12,0,0,0,1-2,20.19,20.19,0,0,0,.7-2.12Z"></path><path d="M242.2,423.13a19.11,19.11,0,0,1-.89,2.6,17.39,17.39,0,0,1-1.37,2.6,13.51,13.51,0,0,1-1.82,2.24,7.31,7.31,0,0,1-2.27,1.54l-1,.37a6.75,6.75,0,0,1-.84.26l-.89.2a8.12,8.12,0,0,1-1.07.12.62.62,0,0,0-.18,0h-.21a6.11,6.11,0,0,1-1.86-.29l-1.79-.58a6.64,6.64,0,0,1-2.42-1.51,8.39,8.39,0,0,1-1.59-2.23,10.38,10.38,0,0,1-.88-2.64,14.92,14.92,0,0,1-.26-2.81c0-.35,0-.7,0-1s.06-.67.11-1a14.2,14.2,0,0,1,.61-2.41,15.88,15.88,0,0,1,1.11-2.55,14.54,14.54,0,0,1,1.52-2.3,8,8,0,0,1,1.84-1.68,9.65,9.65,0,0,1,2.63-1.21,10.25,10.25,0,0,1,2.84-.4,9.37,9.37,0,0,1,4.49,1.12A8,8,0,0,1,241.4,415a9,9,0,0,1,.84,2.37,13.15,13.15,0,0,1,.24,2.5c0,.54,0,1.08-.07,1.63A14.52,14.52,0,0,1,242.2,423.13Zm-2.8-.35c.07-.46.13-.94.19-1.42a11.64,11.64,0,0,0,.09-1.45,9.93,9.93,0,0,0-.18-1.86,5.71,5.71,0,0,0-.63-1.75,5.48,5.48,0,0,0-2.35-2.32,6.85,6.85,0,0,0-3.23-.81,5.89,5.89,0,0,0-3.57,1.16,8,8,0,0,0-1.74,1.79,12,12,0,0,0-1.26,2.24,12.78,12.78,0,0,0-.77,2.44,11.19,11.19,0,0,0-.27,2.37,9.86,9.86,0,0,0,.37,2.68,6.25,6.25,0,0,0,1.16,2.25,6,6,0,0,0,2,1.56,6.19,6.19,0,0,0,2.81.59,5.31,5.31,0,0,0,1.35-.17,5.26,5.26,0,0,0,1.24-.49,7.92,7.92,0,0,0,1.81-1.37,10.52,10.52,0,0,0,1.38-1.75,12,12,0,0,0,1-2,20.19,20.19,0,0,0,.7-2.12Z"></path></g><g style="opacity:0.30000000000000004"><path d="M266.53,364.58c-6.91-7.36-16.16-12.29-28.1-13.76-8.57-1.05-24.85-2.31-33.19,3.9l-.27.22c-11.94,6.39-21.85,20.37-28.82,38a16,16,0,0,1,7.62-4.66c5.54-1.49,11.4-.61,17.13-.34s11.94-.27,16.33-4c3.92-3.3,5.69-8.57,9.41-12.1,4.76-4.52,11.86-5.46,18.43-5.42s13.3.8,19.56-1.18C265.28,365.09,265.91,364.84,266.53,364.58Z"></path></g><ellipse cx="257.24" cy="365.48" rx="19.88" ry="49.67" transform="translate(-188.76 394.26) rotate(-58.55)" style="fill:#263238"></ellipse><path d="M237.08,352.5c-.22-.46,38.45-25.95,40.88-25.65s-.9,45.75-.9,45.75S250.74,380.63,237.08,352.5Z" style="fill:#263238"></path><path d="M245.71,345.79c.15-.11,2.74,10.12,12.37,15.06a29.92,29.92,0,0,0,19.83,2.68l-.85,11.36s-10.81,2.38-24.86-5.37S236,352.77,236,352.77Z" style="fill:#006400"></path></g><g id="freepik--Pumpkin--inject-14"><path d="M141.79,431a2.05,2.05,0,0,0-1-1.27,2.17,2.17,0,0,0-1.16,0l-5.89.92a.6.6,0,0,0-.25,1.09,9.47,9.47,0,0,1,2.62,2.84,5.33,5.33,0,0,1,.19,5.2l4.16,1.91A12.05,12.05,0,0,0,141.79,431Z" style="fill:#455a64"></path><g style="opacity:0.30000000000000004"><path d="M137,438l0-.84a35.27,35.27,0,0,1,3.86,1.78l1.36-1.11-.52,1.69c.13.1-1.28,1.55-1.28,1.55Z"></path></g><path d="M178.52,452.74a21.07,21.07,0,0,0-6.35-9.19,11.58,11.58,0,0,0-10.58-2.15c-2.67-5.36-15.85-6.63-20.55-1.71,0,0-5.72-3.54-11.48-2.46a15.28,15.28,0,0,0-9.5,6.63c-3.91-1.53-8.54-.18-11.66,2.65s-4.88,6.91-5.75,11.06a25,25,0,0,0,.73,13.73,17.09,17.09,0,0,0,9.12,9.93c1.94.8,6,2,6,2l45.63-.52c5.9-.27,13.15-6.89,15.22-12.47S180.67,458.29,178.52,452.74Z" style="fill:#006400"></path><path d="M119,483.31a1.55,1.55,0,0,1-.38-.22,6.35,6.35,0,0,1-.94-.83,11.36,11.36,0,0,1-2.25-4,52.66,52.66,0,0,1-1.69-6.57,39.61,39.61,0,0,1-.8-8.27c0-5.9,1.28-11.25,3.14-14.67a13.82,13.82,0,0,1,2.75-3.66,7.09,7.09,0,0,1,1-.78,1.93,1.93,0,0,1,.38-.23,15.89,15.89,0,0,0-3.77,4.84c-1.74,3.4-2.91,8.67-3,14.5a41.89,41.89,0,0,0,.76,8.18,59.16,59.16,0,0,0,1.56,6.53,12,12,0,0,0,2.06,4C118.55,482.93,119.05,483.27,119,483.31Z" style="fill:#263238"></path><path d="M161.59,441.4a1.61,1.61,0,0,1,.34.3c.2.21.51.52.89.93a23.86,23.86,0,0,1,2.73,3.9,27.35,27.35,0,0,1,2.58,6.57c.33,1.29.59,2.67.82,4.09a40.7,40.7,0,0,1,.58,4.44,72.25,72.25,0,0,1-.07,8.63,22.26,22.26,0,0,1-1.46,6.92,18.72,18.72,0,0,1-2.29,4.17c-.34.45-.6.79-.8,1a1.74,1.74,0,0,1-.32.33,27.65,27.65,0,0,0,3.07-5.65c1.48-3.7,1.57-9.32,1.35-15.37-.09-1.52-.35-3-.57-4.4s-.47-2.77-.78-4a28.2,28.2,0,0,0-2.43-6.51A35.89,35.89,0,0,0,161.59,441.4Z" style="fill:#263238"></path><path d="M144.18,482.69a12.23,12.23,0,0,1,.17-1.71c.14-1.09.4-2.67.56-4.63A90.56,90.56,0,0,0,145.2,461a77.45,77.45,0,0,0-2.45-15.13c-.52-1.9-1.05-3.4-1.43-4.43s-.7-1.54-.67-1.57.11.11.26.36.34.64.6,1.13a38.75,38.75,0,0,1,1.59,4.41,69.54,69.54,0,0,1,2.63,15.2,80.1,80.1,0,0,1-.45,15.41c-.21,2-.52,3.54-.72,4.62A10.23,10.23,0,0,1,144.18,482.69Z" style="fill:#263238"></path><g style="opacity:0.30000000000000004"><path d="M113.31,466.45c-.5-5.21.27-13.09,2.76-17.68-2.71,3.17-5.13,6.18-6.35,10.16a19.57,19.57,0,0,0,.91,12.44,32.11,32.11,0,0,0,6.54,10C114.86,476.93,113.8,471.65,113.31,466.45Z"></path></g><g style="opacity:0.30000000000000004"><path d="M166.78,480c4.34-5.24,6.08-12.25,6.23-17.92a24.34,24.34,0,0,0-3.72-12.65c-2-3.15-3.42-5.64-6.43-7.11a29.1,29.1,0,0,1,6.39,18.16A72.94,72.94,0,0,1,166.78,480Z"></path></g><g style="opacity:0.30000000000000004"><path d="M139.27,442.46a9.23,9.23,0,0,0-4.15-3.47c-2.92-1-5.58,0-8.15,1.74a30.72,30.72,0,0,0-6.54,6.54c-1.34,1.65-2.77,3.66-2.25,5.73a26.1,26.1,0,0,1,13.35-9.32c2.08-.62,4.41-.95,6.34,0,.49.26,1.13.58,1.53.2S139.56,442.9,139.27,442.46Z" style="fill:#fff"></path></g><g style="opacity:0.30000000000000004"><path d="M117.71,444.91c-4-.05-9.87,2.93-11.68,6.58s-3.37,8.55-1.64,12.24C105.44,457.55,112.84,448.78,117.71,444.91Z" style="fill:#fff"></path></g></g><g id="freepik--Plants--inject-14"><path d="M300.25,474.11a93.68,93.68,0,0,0,2.84-23.22A60.23,60.23,0,0,0,294,473.28a69.38,69.38,0,0,0-9.24-20.65,89,89,0,0,0,2,24.3L272,465.17c4.6,7.05,9.56,14.42,17.13,18.09h12.58c5.05-4.51,9.67-13.22,12.86-18.82Q307.41,469.29,300.25,474.11Z" style="fill:#263238"></path><path d="M162.35,474.11a93.68,93.68,0,0,0,2.84-23.22,60.23,60.23,0,0,0-9.09,22.39,69.38,69.38,0,0,0-9.24-20.65,89,89,0,0,0,2,24.3l-14.78-11.76c4.6,7.05,9.56,14.42,17.13,18.09h12.58c5.06-4.51,9.67-13.22,12.86-18.82Q169.51,469.29,162.35,474.11Z" style="fill:#263238"></path><path d="M279.05,468.84a148.72,148.72,0,0,0,4.48-36.62,94.58,94.58,0,0,0-14.34,35.31A109.48,109.48,0,0,0,254.61,435a140.58,140.58,0,0,0,3.16,38.32l-23.31-18.54c7.25,11.11,15.07,22.73,27,28.52h19.84c8-7.11,15.25-20.85,20.28-29.67Z" style="fill:#455a64"></path></g><g id="freepik--speech-bubble--inject-14"><path d="M222.94,100.66a30.85,30.85,0,1,1,5.82,7L220,108.8Z" style="fill:#fff"></path><path d="M222.94,100.66s-.08.18-.21.53-.33.89-.59,1.57c-.51,1.38-1.27,3.41-2.23,6l0,.1H220l8.79-1.09-.07,0a30.88,30.88,0,0,0,14,7.21c.74.16,1.49.3,2.25.41s1.55.14,2.33.22c.4,0,.79.09,1.19.09l1.21,0a20.41,20.41,0,0,0,2.46-.1,29.77,29.77,0,0,0,10-2.61,31,31,0,0,0,18.33-28.08,30.88,30.88,0,0,0-2.56-12.57,30.51,30.51,0,0,0-13.56-14.89l-1.1-.58-.54-.29-.57-.24-2.27-.93a34.21,34.21,0,0,0-4.67-1.23,37.71,37.71,0,0,0-4.69-.56,34.84,34.84,0,0,0-9.05,1c-.71.21-1.41.45-2.11.67-.34.12-.7.21-1,.35l-1,.43-1,.43a7.73,7.73,0,0,0-1,.47l-1.85,1a7.21,7.21,0,0,0-.88.55l-.86.59a17.92,17.92,0,0,0-1.65,1.21,30.7,30.7,0,0,0-9.1,11.8,25.71,25.71,0,0,0-1.17,3.15,23.07,23.07,0,0,0-.8,3.09,28.92,28.92,0,0,0-.66,5.81,30.91,30.91,0,0,0,1.29,9.24,30.19,30.19,0,0,0,2.24,5.46c.31.6.57,1,.75,1.33s.28.45.28.45-.08-.16-.25-.46-.42-.75-.72-1.35a30.75,30.75,0,0,1-3.4-14.67,29.18,29.18,0,0,1,.68-5.76,22.42,22.42,0,0,1,.8-3.07,24.81,24.81,0,0,1,1.18-3.12,30.51,30.51,0,0,1,9.05-11.68,16.43,16.43,0,0,1,1.64-1.2l.85-.58a7.21,7.21,0,0,1,.88-.55l1.83-1a6.47,6.47,0,0,1,1-.45l1-.43,1-.42c.32-.15.68-.23,1-.35.69-.22,1.38-.45,2.09-.66a33.3,33.3,0,0,1,4.39-.79,34.48,34.48,0,0,1,4.57-.21,35.19,35.19,0,0,1,4.64.57,33.08,33.08,0,0,1,4.62,1.21l2.25.92c.18.08.38.15.56.24l.54.29,1.08.58a30.2,30.2,0,0,1,13.42,14.74,30.49,30.49,0,0,1,2.53,12.43,31,31,0,0,1-2.51,12,30.56,30.56,0,0,1-6.56,9.63,30.93,30.93,0,0,1-9.05,6.23,29.29,29.29,0,0,1-9.89,2.61,19.85,19.85,0,0,1-2.43.11h-1.2a11.5,11.5,0,0,1-1.18-.08c-.78-.07-1.55-.12-2.31-.21s-1.5-.25-2.23-.4a31,31,0,0,1-13.94-7.11l0,0h0L220,108.74l.07.09,2.18-6.07c.24-.68.43-1.21.55-1.57S222.94,100.66,222.94,100.66Z" style="fill:#263238"></path><path d="M231.79,80.67a10.62,10.62,0,0,1,2.72-5.78,10.31,10.31,0,0,1,5.33-3.29,8.41,8.41,0,0,1,6.45,1.26,8.32,8.32,0,0,1,2.64,3,8.22,8.22,0,0,1,8.9-3.94,10.23,10.23,0,0,1,5.34,3.27A10.72,10.72,0,0,1,265.91,81a13,13,0,0,1-1.6,8A18.36,18.36,0,0,1,258,94.84c-4.12,2.49-9.55,5.61-9.55,5.61s-4.59-3.42-8.72-5.9a18.37,18.37,0,0,1-6.32-5.91A12.92,12.92,0,0,1,231.79,80.67Z" style="fill:#006400"></path></g><g id="freepik--ghost-2--inject-14"><path d="M363,396.73c4.08,1.59,13.4,1.18,20.06-7.13,7.33-9.13,19.94-3.87,30.67-.54a21.52,21.52,0,0,0,18.1-2.3c9.83-6.38,5.63-14.21,14-22.44,6.6-6.52,30.21-5.17,32.88-18.2h0a79.69,79.69,0,0,1-31.4-32.95,155,155,0,0,1-12.82-36.26c-1.29-5.91-2.58-11.85-4.3-18.17-6.93-25.44-20.28-42.91-49.36-48.6-25.14-4.07-42.49,8.14-52.38,21.8s-11.57,26.33-14.75,42.9c-3.88,20.24-5.09,42.83-6.49,63.4l-1.44,41.69c-.38,10.87,8.71,20.2,19.52,19.07.63-.07,1.26-.16,1.91-.29C340.05,396.13,339.38,387.54,363,396.73Z" style="fill:#006400"></path><g style="opacity:0.7000000000000001"><path d="M363,396.73c4.08,1.59,13.4,1.18,20.06-7.13,7.33-9.13,19.94-3.87,30.67-.54a21.52,21.52,0,0,0,18.1-2.3c9.83-6.38,5.63-14.21,14-22.44,6.6-6.52,30.21-5.17,32.88-18.2h0a79.69,79.69,0,0,1-31.4-32.95,155,155,0,0,1-12.82-36.26c-1.29-5.91-2.58-11.85-4.3-18.17-6.93-25.44-20.28-42.91-49.36-48.6-25.14-4.07-42.49,8.14-52.38,21.8s-11.57,26.33-14.75,42.9c-3.88,20.24-5.09,42.83-6.49,63.4l-1.44,41.69c-.38,10.87,8.71,20.2,19.52,19.07.63-.07,1.26-.16,1.91-.29C340.05,396.13,339.38,387.54,363,396.73Z" style="fill:#fff"></path></g><g style="opacity:0.30000000000000004"><path d="M379.73,234c.51-6.33-1-13.31-5.93-17.31-4.37-3.55-10.67-4-16.05-2.35s-10,5.24-14,9.15c-16.5,15.88-27.43,39.47-27,62.37,13.75-4.15,28.3-9,40.22-17S378.59,248.33,379.73,234Z" style="fill:#fff"></path></g><g style="opacity:0.4"><path d="M412.72,272.25c.22,2.8-3.37,5.36-8,5.72s-8.59-1.62-8.8-4.41,3.37-5.36,8-5.72S412.5,269.46,412.72,272.25Z" style="fill:#006400"></path></g><path d="M350,245.31a3,3,0,0,1-1.38,1.81,12.8,12.8,0,0,1-2.44,1.35,13.26,13.26,0,0,1-2.65.88,3,3,0,0,1-2.27-.22,2,2,0,0,1-.36-2.44,6.29,6.29,0,0,1,7.56-3.3C349.55,243.83,350.06,244.6,350,245.31Z" style="fill:#263238"></path><path d="M398.52,243.08a2.93,2.93,0,0,1-2,1.15,12.54,12.54,0,0,1-2.77.32,13,13,0,0,1-2.78-.19,2.91,2.91,0,0,1-2-1.07c-.39-.6-.25-1.51.58-2.38a6.28,6.28,0,0,1,8.25-.19A2,2,0,0,1,398.52,243.08Z" style="fill:#263238"></path><path d="M387.05,267.73a1,1,0,0,1-1-.72,9.63,9.63,0,1,1,18.44-5.56,1,1,0,0,1-1.94.58,7.6,7.6,0,0,0-14-1.39,7.54,7.54,0,0,0-.58,5.79,1,1,0,0,1-1,1.3Z" style="fill:#263238"></path><path d="M372.34,273.74c-3.27,0-6.27-2.72-7-6.53a1,1,0,1,1,2-.37c.59,3.12,3.13,5.28,5.69,4.8s4.16-3.4,3.57-6.52a1,1,0,0,1,.82-1.19,1,1,0,0,1,1.18.82c.79,4.22-1.55,8.21-5.2,8.89A5.61,5.61,0,0,1,372.34,273.74Z" style="fill:#263238"></path><path d="M341.69,270a1,1,0,0,1-1-1,9.61,9.61,0,0,1,9.45-9.8,9.63,9.63,0,0,1,9.81,9.45,1,1,0,0,1-1,1h0a1,1,0,0,1-1-1,7.61,7.61,0,0,0-15.21.28,1,1,0,0,1-1,1Z" style="fill:#263238"></path><path d="M415.75,291.81a5.42,5.42,0,0,1-.67-.48l-1.88-1.44a72.66,72.66,0,0,0-7.21-4.83,45.09,45.09,0,0,0-11.89-4.78,23.35,23.35,0,0,0-7.48-.67,14,14,0,0,0-3.83.93,8.43,8.43,0,0,0-3.32,2.21,5,5,0,0,0-1.2,3.66,7.83,7.83,0,0,0,1.2,3.68,17.31,17.31,0,0,0,2.4,3c.89.9,1.79,1.75,2.69,2.56,3.64,3.2,7.2,5.77,10,8.2a40.43,40.43,0,0,1,6.08,6.26l.8,1.11c.21.32.38.61.53.85a3.72,3.72,0,0,1,.41.72,6.24,6.24,0,0,1-.49-.66l-.58-.82-.83-1.08a44.7,44.7,0,0,0-6.16-6.1c-2.79-2.37-6.37-4.91-10.05-8.12-.92-.8-1.83-1.66-2.73-2.57a16.93,16.93,0,0,1-2.48-3.06,8.33,8.33,0,0,1-1.29-3.92,5.59,5.59,0,0,1,1.32-4,8.9,8.9,0,0,1,3.53-2.36,14.43,14.43,0,0,1,4-.95,24,24,0,0,1,7.65.7,44.14,44.14,0,0,1,11.95,4.94,62.44,62.44,0,0,1,7.15,5c.81.65,1.42,1.16,1.83,1.52A4.49,4.49,0,0,1,415.75,291.81Z" style="fill:#263238"></path><path d="M352,324s0-.07,0-.22l0-.66a19.19,19.19,0,0,1,.15-2.53,25.72,25.72,0,0,1,2.94-8.8,50.35,50.35,0,0,1,8.38-10.94,35.54,35.54,0,0,0,5.19-6.16,11.58,11.58,0,0,0,1.49-3.91,7.76,7.76,0,0,0-.35-4.21,7.08,7.08,0,0,0-2.68-3.24,9.81,9.81,0,0,0-3.87-1.52,14,14,0,0,0-7.77,1.26,42.44,42.44,0,0,0-6.37,3.58c-1.92,1.27-3.64,2.54-5.15,3.77a68.21,68.21,0,0,0-6.78,6.3c-.75.8-1.32,1.43-1.7,1.86a4.64,4.64,0,0,1-.61.64,6.65,6.65,0,0,1,.53-.7c.35-.46.9-1.11,1.63-1.93a60.93,60.93,0,0,1,6.69-6.46c1.51-1.25,3.23-2.55,5.15-3.85a42.86,42.86,0,0,1,6.41-3.66,14.53,14.53,0,0,1,8.06-1.32,10.37,10.37,0,0,1,4.08,1.6,7.58,7.58,0,0,1,2.88,3.48,8.35,8.35,0,0,1,.37,4.5,12,12,0,0,1-1.57,4.08,35.7,35.7,0,0,1-5.28,6.23,51,51,0,0,0-8.4,10.78,26.16,26.16,0,0,0-3.06,8.65c-.17,1.08-.22,1.93-.26,2.5A6,6,0,0,1,352,324Z" style="fill:#263238"></path><path d="M381.27,213.93c0,.15-1.82-.19-5.1-.31a45.75,45.75,0,0,0-13.67,1.71,50.85,50.85,0,0,0-18,9.34A63.25,63.25,0,0,0,328.7,244a80.85,80.85,0,0,0-5.26,11.88,92,92,0,0,0-3,11.75c-1.47,7.63-2.34,14.59-3,20.44s-1.07,10.61-1.35,13.89a35.61,35.61,0,0,1-.53,5.1,4.49,4.49,0,0,1-.11-1.33c0-.87,0-2.15,0-3.8.09-3.31.33-8.08.85-14s1.31-12.89,2.7-20.6a90,90,0,0,1,3-12,80,80,0,0,1,5.34-12.14,63.29,63.29,0,0,1,16.24-19.67,50.38,50.38,0,0,1,18.66-9.27,42.74,42.74,0,0,1,14-1.25,32.37,32.37,0,0,1,3.78.56A4,4,0,0,1,381.27,213.93Z" style="fill:#fff"></path><path d="M354.3,392.43a3.47,3.47,0,0,1-.36-.91c-.2-.59-.46-1.45-.75-2.53a74.58,74.58,0,0,1-1.77-8.53,75.55,75.55,0,0,1-.81-8.68c0-1.12-.05-2,0-2.64a3,3,0,0,1,.08-1,31.73,31.73,0,0,1,.32,3.59c.17,2.21.46,5.27,1,8.62s1.12,6.35,1.61,8.52A30.38,30.38,0,0,1,354.3,392.43Z" style="fill:#263238"></path><path d="M399.63,381.77a6.32,6.32,0,0,1-.75-1.12c-.46-.74-1.09-1.82-1.85-3.17-1.52-2.71-3.53-6.51-5.55-10.79s-3.68-8.25-4.79-11.15c-.56-1.44-1-2.62-1.28-3.45a7.48,7.48,0,0,1-.39-1.29,6.13,6.13,0,0,1,.58,1.22L387,355.4c1.21,2.86,2.91,6.79,4.93,11.06s4,8.09,5.4,10.84l1.7,3.25A6.83,6.83,0,0,1,399.63,381.77Z" style="fill:#263238"></path><path d="M442,362.56a5.33,5.33,0,0,1-.89-.73c-.54-.5-1.31-1.23-2.24-2.17C437,357.8,434.5,355.13,432,352s-4.67-6.06-6.13-8.25c-.73-1.1-1.3-2-1.68-2.63a4.58,4.58,0,0,1-.54-1,4.84,4.84,0,0,1,.71.9l1.82,2.52c1.53,2.13,3.7,5,6.23,8.14s5,5.79,6.74,7.71l2.12,2.28A4.93,4.93,0,0,1,442,362.56Z" style="fill:#263238"></path><g style="opacity:0.4"><path d="M350.8,278.68c.22,2.8-3.37,5.35-8,5.71S334.2,282.78,334,280s3.38-5.35,8-5.71S350.59,275.88,350.8,278.68Z" style="fill:#006400"></path></g></g><g id="freepik--ghost-1--inject-14"><path d="M305.22,233.66c3.43-6,0-14-5.62-18s-12.7-5.13-19.48-6.37c-17.31-3.19-35.17-8.49-47.45-21.09-18.86-19.35-19.23-49.54-28.55-74.91C191.88,80,172,58.09,132.31,53.82c-34.2-2.55-56.06,15.83-67.74,35.3s-17,39.11-19.35,61.69c-2.86,27.6-4.3,55.61.11,83s10.21,59.45,29,79.89c9.9,10.79,18.46,17.48,33.08,18.27,9.54.52,12.92-8.55,22.47-8.58C150,323.33,175,343.87,193.94,337c10.75-3.89,29.2-17.66,40.31-20.32,12-2.86,23.23-4.39,33.28-11.47,9.88-7,10.64-18.44,13.44-33.58,1.7-9.17-.89-16,8.91-23.11C296.34,243.85,301.25,240.58,305.22,233.66Z" style="fill:#006400"></path><g style="opacity:0.7000000000000001"><path d="M305.22,233.66c3.43-6,0-14-5.62-18s-12.7-5.13-19.48-6.37c-17.31-3.19-35.17-8.49-47.45-21.09-18.86-19.35-19.23-49.54-28.55-74.91C191.88,80,172,58.09,132.31,53.82c-34.2-2.55-56.06,15.83-67.74,35.3s-17,39.11-19.35,61.69c-2.86,27.6-4.3,55.61.11,83s10.21,59.45,29,79.89c9.9,10.79,18.46,17.48,33.08,18.27,9.54.52,12.92-8.55,22.47-8.58C150,323.33,175,343.87,193.94,337c10.75-3.89,29.2-17.66,40.31-20.32,12-2.86,23.23-4.39,33.28-11.47,9.88-7,10.64-18.44,13.44-33.58,1.7-9.17-.89-16,8.91-23.11C296.34,243.85,301.25,240.58,305.22,233.66Z" style="fill:#fff"></path></g><g style="opacity:0.30000000000000004"><path d="M129.53,89.15c-.06-8.54-2.89-17.73-10-22.53-6.27-4.26-14.78-4.17-21.79-1.3S85,73.51,80,79.22C59.75,102.43,47.81,135.33,51,166c18-7.16,36.92-15.34,52-27.47S129.65,108.48,129.53,89.15Z" style="fill:#fff"></path></g><g style="opacity:0.30000000000000004"><path d="M140.85,187c5.25-6.36,21.39-6.06,25.13.16,4.19-1.81,9.22-.89,13.05,1.6s6.58,6.37,8.57,10.48c3.13,6.49,4.54,14.05,2.55,21s-7.87,12.91-15,13.78A21.79,21.79,0,0,1,146,242.53c-5.55,4.29-13.82,5.31-20.61,3.6a18.65,18.65,0,0,1-8-4.69s-5-1.05-7.42-1.83a20.74,20.74,0,0,1-12-11.12A29.88,29.88,0,0,1,95.81,212c.67-5.07,2.45-10.15,6-13.84s9-5.75,13.92-4.28a18.75,18.75,0,0,1,11-8.86c6.9-1.82,14.19,1.91,14.19,1.91Z"></path></g><path d="M136.27,132.6l-18.69,4a12.16,12.16,0,0,0,6.13,8.09,9.6,9.6,0,0,0,9.92-.73C137,141.4,137.92,136.44,136.27,132.6Z" style="fill:#006400"></path><path d="M144.26,325.79a3.24,3.24,0,0,1-.65-.19l-1.84-.66c-1.6-.56-3.88-1.47-6.66-2.66s-6.06-2.72-9.64-4.54-7.41-4-11.34-6.43-7.56-5-10.79-7.33-6-4.66-8.33-6.64-4.12-3.62-5.34-4.8l-1.4-1.36a3.06,3.06,0,0,1-.46-.5,4.19,4.19,0,0,1,.54.43l1.46,1.28c1.26,1.13,3.11,2.73,5.44,4.66s5.16,4.16,8.38,6.53,6.86,4.84,10.77,7.28,7.76,4.58,11.3,6.45,6.79,3.4,9.56,4.63,5,2.19,6.58,2.81l1.81.75A3.2,3.2,0,0,1,144.26,325.79Z"></path><path d="M192.08,299.65a9.23,9.23,0,0,1,1.43.73l3.8,2.13c3.22,1.77,7.72,4.14,12.81,6.52s9.79,4.3,13.22,5.63l4.07,1.56a8.36,8.36,0,0,1,1.48.62,9.44,9.44,0,0,1-1.55-.43c-1-.3-2.4-.78-4.13-1.4-3.48-1.24-8.22-3.12-13.32-5.5s-9.58-4.81-12.76-6.68c-1.59-.93-2.86-1.71-3.73-2.27A9.56,9.56,0,0,1,192.08,299.65Z"></path><path d="M283.78,255.26a3.62,3.62,0,0,1-1.06-.14c-.67-.14-1.63-.36-2.81-.69-2.35-.66-5.56-1.72-9-3.09s-6.54-2.75-8.73-3.82c-1.1-.54-2-1-2.57-1.31a3.79,3.79,0,0,1-.91-.56,35.41,35.41,0,0,1,3.64,1.53c2.22,1,5.31,2.32,8.76,3.67s6.63,2.48,8.94,3.22S283.79,255.18,283.78,255.26Z"></path><g style="opacity:0.4"><path d="M180.12,135.67c.62,3.72-3.9,7.57-10.09,8.59s-11.7-1.17-12.32-4.89,3.91-7.58,10.1-8.6S179.51,132,180.12,135.67Z" style="fill:#006400"></path></g><g style="opacity:0.4"><path d="M99.62,151.15c.61,3.73-3.91,7.57-10.09,8.59s-11.71-1.17-12.32-4.89,3.9-7.57,10.09-8.59S99,147.43,99.62,151.15Z" style="fill:#006400"></path></g><path d="M90.63,107.09c-.27.69-1.16,1-2.26,1.3s-2.44.46-3.91.7-2.78.51-3.91.64-2.08.09-2.57-.47-.31-1.59.65-2.74a8.91,8.91,0,0,1,10.48-1.79C90.4,105.48,90.89,106.43,90.63,107.09Z" style="fill:#263238"></path><path d="M159.08,93.51c-.31.67-1.22.95-2.33,1.15s-2.47.31-3.94.47-2.82.33-3.95.39-2.08,0-2.53-.62-.22-1.62.81-2.7a8.89,8.89,0,0,1,10.57-1.15C159,91.88,159.39,92.86,159.08,93.51Z" style="fill:#263238"></path><circle cx="93.23" cy="131.78" r="11.6" transform="translate(-26.19 23.17) rotate(-12.44)" style="fill:#263238"></circle><path d="M99.76,132.86a4.22,4.22,0,0,0-3.14-.35,6.08,6.08,0,0,0-2.55,1.57A5.17,5.17,0,0,0,92.42,137v0a3.27,3.27,0,0,0,3.88,3.35,6.36,6.36,0,0,0,.66-.2,7.64,7.64,0,0,0,3.22-2.27,4.07,4.07,0,0,0,1.27-2.41A3.14,3.14,0,0,0,99.76,132.86Z" style="fill:#fff"></path><circle cx="158.06" cy="120.13" r="11.6" transform="translate(-3.32 4.49) rotate(-1.61)" style="fill:#263238"></circle><path d="M164.94,122.85a4.11,4.11,0,0,0-2.81-1.32,5.83,5.83,0,0,0-2.88.65,5.11,5.11,0,0,0-2.48,2.2v0a3.21,3.21,0,0,0,2.54,4.35,5.23,5.23,0,0,0,.68,0,7.6,7.6,0,0,0,3.73-1.09,4.05,4.05,0,0,0,1.95-1.84A3.1,3.1,0,0,0,164.94,122.85Z" style="fill:#fff"></path><path d="M127.59,150.49a2.91,2.91,0,0,0-1.68-1.54,3.27,3.27,0,0,0-1.65.26L116.15,152a.87.87,0,0,0-.07,1.6,13.57,13.57,0,0,1,4.44,3.3,7.55,7.55,0,0,1,1.62,7.24l6.39,1.59A17,17,0,0,0,127.59,150.49Z" style="fill:#455a64"></path><g style="opacity:0.30000000000000004"><path d="M122.58,161.65l-.26-1.16a49.33,49.33,0,0,1,5.91,1.49l1.65-1.92-.31,2.51c.21.1-1.4,2.51-1.4,2.51Z"></path></g><path d="M128.79,162.93c5.38-8.12,24.37-9.79,29.53-3,4.7-2.65,10.73-2.19,15.54.25s8.52,6.65,11.37,11.23c4.48,7.22,7.1,15.93,5.62,24.3s-7.63,16.15-15.91,18.07a25.73,25.73,0,0,1-33.15,13.72c-6,5.73-15.56,8-23.76,6.81a22.09,22.09,0,0,1-10-4.5s-6-.61-8.93-1.23c-6.49-1.35-12.08-5.86-15.49-11.54A35.52,35.52,0,0,1,79.05,198c.16-6,1.61-12.22,5.29-17s9.88-7.88,15.81-6.76c.86-2.56,5-9.19,11.75-11.78,7.87-3,16.89.46,16.89.46Z" style="fill:#006400"></path><path d="M108.88,229.83a2.5,2.5,0,0,1-.57-.23,9.07,9.07,0,0,1-1.53-.92,16.11,16.11,0,0,1-4.17-5,73.64,73.64,0,0,1-4.07-8.77,57.88,57.88,0,0,1-3.27-11.38c-1.46-8.28-1.09-16.09.64-21.36a19.75,19.75,0,0,1,2.91-5.84A10.39,10.39,0,0,1,100,175a2.33,2.33,0,0,1,.45-.42,3.61,3.61,0,0,1-.37.49,13.81,13.81,0,0,0-1.07,1.4,21.31,21.31,0,0,0-2.72,5.83c-1.61,5.22-1.92,12.94-.47,21.16a59.31,59.31,0,0,0,3.2,11.3,82.66,82.66,0,0,0,3.94,8.76,16.64,16.64,0,0,0,4,5C108.11,229.46,108.91,229.78,108.88,229.83Z" style="fill:#263238"></path><path d="M158.32,160a2.73,2.73,0,0,1,.54.35c.35.24.86.59,1.49,1.08a34.17,34.17,0,0,1,4.84,4.76,38.78,38.78,0,0,1,5.32,8.53c.8,1.72,1.52,3.58,2.21,5.52a63.48,63.48,0,0,1,2,6.07,104.1,104.1,0,0,1,2.13,12.12,31.8,31.8,0,0,1-.25,10.06,27,27,0,0,1-2.13,6.43c-.35.72-.63,1.28-.85,1.64a2.55,2.55,0,0,1-.35.54s.38-.8,1-2.26a30.1,30.1,0,0,0,1.94-6.42c1.18-5.6-.13-13.54-2-22-.51-2.11-1.27-4.08-2-6s-1.39-3.77-2.17-5.48a39.63,39.63,0,0,0-5.16-8.51,38.63,38.63,0,0,0-4.68-4.83l-1.42-1.16A3.14,3.14,0,0,1,158.32,160Z" style="fill:#263238"></path><path d="M142.25,216.87a5.53,5.53,0,0,1,.26,1.56,26.83,26.83,0,0,1,.2,3.8,18,18,0,0,1-.92,5.31c-.18,0,.22-2.41.39-5.33.06-1.45-.05-2.79-.05-3.76A4.62,4.62,0,0,1,142.25,216.87Z" style="fill:#263238"></path><path d="M134,174a59.76,59.76,0,0,0-2.33-5.62c-1.56-3-3.46-5-3.34-5.08a14.21,14.21,0,0,1,3.81,4.84A13.92,13.92,0,0,1,134,174Z" style="fill:#263238"></path><g style="opacity:0.30000000000000004"><path d="M96.44,207.68c-2-7.17-3-18.42-.66-25.5-3,5.15-5.67,10-6.36,15.9s1.35,12.16,4.49,17.21,7.08,8.7,11.86,12.36C101.35,222,98.48,214.86,96.44,207.68Z"></path></g><g style="opacity:0.30000000000000004"><path d="M175.65,212.72c4.79-8.48,5.44-18.76,4.19-26.75-1-6.23-4.85-12.9-8.54-16.77s-6.29-7-10.94-8.29a41.3,41.3,0,0,1,13.75,23.8A103.39,103.39,0,0,1,175.65,212.72Z"></path></g><g style="opacity:0.30000000000000004"><path d="M162.87,189.35c.44,1.13-.74,2.65-2.64,3.38s-3.78.4-4.22-.74.74-2.65,2.64-3.38S162.43,188.21,162.87,189.35Z" style="fill:#fff"></path></g><g style="opacity:0.30000000000000004"><path d="M120.8,203.92c0,1.22-1.62,2.22-3.65,2.25s-3.69-.95-3.7-2.17,1.62-2.22,3.65-2.25S120.79,202.7,120.8,203.92Z" style="fill:#fff"></path></g><g style="opacity:0.30000000000000004"><path d="M127,167.27a13.3,13.3,0,0,0-6.77-3.78c-4.38-.61-7.88,1.52-11.09,4.57s-5.41,7-7.56,10.87c-1.48,2.67-3,5.86-1.71,8.63A37.61,37.61,0,0,1,116.35,171c2.79-1.4,6-2.47,9-1.59.76.23,1.75.51,2.22-.13S127.52,167.82,127,167.27Z" style="fill:#fff"></path></g><g style="opacity:0.30000000000000004"><path d="M97.11,176.33c-5.73,1-13.23,6.69-14.84,12.28s-2.56,12.86.84,17.58C83,197.26,91.2,183,97.11,176.33Z" style="fill:#fff"></path></g><path d="M111.92,191.67a6.5,6.5,0,1,1,12.76,2.53" style="fill:#263238"></path><path d="M151.08,188.4a6.51,6.51,0,1,1,9-9.36" style="fill:#263238"></path><path d="M135.53,197.26,138,200a10.46,10.46,0,0,0,7.23-2.09,10.06,10.06,0,0,0,1-.92,32.24,32.24,0,0,1-.07-3.27c.06,0,1.26.1,2.17.13a10.3,10.3,0,0,0,.85-4.93l-4.29.69-2.29,4.22-3.54-2.16s-2,1.84-2.19,2a29.88,29.88,0,0,1-3.71-2.13l-4.3.69a10.57,10.57,0,0,0,5.2,6.65Z" style="fill:#263238"></path><path d="M197.61,170.69c-7.12-2.19-16.17-3.8-23-.76-2.56,1.14-5.1,2.85-6.11,5.47a8.69,8.69,0,0,0,.72,7.08A19.5,19.5,0,0,0,174,188c9.67,8.3,22.28,13.38,29.81,23.66L219.39,182C213.18,177.71,205.83,173.21,197.61,170.69Z" style="fill:#006400"></path><g style="opacity:0.7000000000000001"><path d="M197.61,170.69c-7.12-2.19-16.17-3.8-23-.76-2.56,1.14-5.1,2.85-6.11,5.47a8.69,8.69,0,0,0,.72,7.08A19.5,19.5,0,0,0,174,188c9.67,8.3,22.28,13.38,29.81,23.66L219.39,182C213.18,177.71,205.83,173.21,197.61,170.69Z" style="fill:#fff"></path></g><path d="M99.64,197.88c-1.38-4.6-6.28-7.48-11.07-7.82s-9.49,1.39-13.83,3.45a87.2,87.2,0,0,0-23.91,16.8l19.62,35.53a33.17,33.17,0,0,1,6.39-16.45A71.07,71.07,0,0,1,89.2,216.57c2.89-2.45,5.91-4.84,8.09-7.95S100.73,201.52,99.64,197.88Z" style="fill:#006400"></path><g style="opacity:0.7000000000000001"><path d="M99.64,197.88c-1.38-4.6-6.28-7.48-11.07-7.82s-9.49,1.39-13.83,3.45a87.2,87.2,0,0,0-23.91,16.8l19.62,35.53a33.17,33.17,0,0,1,6.39-16.45A71.07,71.07,0,0,1,89.2,216.57c2.89-2.45,5.91-4.84,8.09-7.95S100.73,201.52,99.64,197.88Z" style="fill:#fff"></path></g><path d="M70.45,245.84a20.84,20.84,0,0,1,.64-4.55,34.51,34.51,0,0,1,5.15-11.36A68,68,0,0,1,89,216.45c2.65-2.26,5.56-4.53,7.81-7.55a15.69,15.69,0,0,0,2.54-5.05,10.46,10.46,0,0,0,.11-5.74,9.64,9.64,0,0,0-3.17-4.75,13.31,13.31,0,0,0-5-2.58,19.06,19.06,0,0,0-10.64.62,59.89,59.89,0,0,0-9,3.94c-2.73,1.44-5.21,2.93-7.41,4.37a89.31,89.31,0,0,0-9.92,7.54c-1.11,1-2,1.74-2.52,2.27l-.66.6c-.14.13-.22.2-.23.19s.06-.08.2-.23l.61-.63c.55-.56,1.37-1.36,2.46-2.35A83.51,83.51,0,0,1,64,199.4c2.2-1.47,4.68-3,7.42-4.44a57.63,57.63,0,0,1,9.09-4,19.41,19.41,0,0,1,10.91-.66A13.83,13.83,0,0,1,96.58,193a10.19,10.19,0,0,1,3.35,5,11.12,11.12,0,0,1-.11,6,16.27,16.27,0,0,1-2.64,5.22c-2.31,3.09-5.26,5.37-7.9,7.61a68.78,68.78,0,0,0-12.73,13.32,35.48,35.48,0,0,0-5.26,11.2,33.17,33.17,0,0,0-.67,3.32c0,.37-.08.65-.11.88A1.21,1.21,0,0,1,70.45,245.84Z" style="fill:#263238"></path><path d="M180.29,289.73c.12-.1,1.57,1.55,3.63,3.27s3.93,2.88,3.86,3a13,13,0,0,1-4.2-2.61A12.84,12.84,0,0,1,180.29,289.73Z"></path><g style="opacity:0.30000000000000004"><path d="M261.49,247s15.23-.89,21.57-.75c3.33.07,9.92,0,9.92,0s-7.41,4.72-9.2,9Z"></path></g><g style="opacity:0.30000000000000004"><path d="M128,318.35,101,301.93c3.25,4.61,6.52,9.25,10.6,13.14s9.08,7,14.63,8c1.3.23,2.61.34,3.92.44l11,.9C136.5,323.16,132.2,320.74,128,318.35Z"></path></g><path d="M129.29,61.2c0,.09-.62.14-1.75.15s-2.8,0-4.94.12c-1.07.1-2.26.17-3.55.32s-2.69.34-4.17.66A59.2,59.2,0,0,0,105,65.2,68.35,68.35,0,0,0,82.36,79.06,84.19,84.19,0,0,0,63.44,105.5a108.73,108.73,0,0,0-5.9,15.92,157.61,157.61,0,0,0-3.41,15.51c-1.73,10-2.74,19.15-3.43,26.82s-1,13.9-1.1,18.21-.11,6.69-.32,6.71-.52-2.37-.7-6.71-.2-10.61.26-18.35,1.28-16.93,2.89-27.08a150.1,150.1,0,0,1,3.32-15.81,107.07,107.07,0,0,1,6-16.34A84,84,0,0,1,80.73,77.25a67.91,67.91,0,0,1,23.64-13.82A56.89,56.89,0,0,1,114.64,61c1.53-.26,3-.33,4.3-.45s2.54-.07,3.63-.1a39.71,39.71,0,0,1,5,.37C128.71,61,129.3,61.11,129.29,61.2Z" style="fill:#fff"></path><path d="M51.89,199.62c-.34.12-.76-.05-1.1-.53a3.39,3.39,0,0,1,.3-4c.42-.42.86-.53,1.18-.36.63.38.7,1.45.63,2.53S52.58,199.34,51.89,199.62Z" style="fill:#fff"></path><g style="opacity:0.30000000000000004"><path d="M93,195.76a4.43,4.43,0,0,0-3.55-2.87,11.33,11.33,0,0,0-4.76.43,58.85,58.85,0,0,0-29.65,18,21.13,21.13,0,0,0-2.73,10.7c-.11,3.87,2.49,8.1,6.35,8.37,3.29.23,6-2.32,8.33-4.69l23.29-24C91.92,200.11,93.66,198,93,195.76Z" style="fill:#fff"></path></g><path d="M84.92,193.71c.26.74-7.45,3.8-16.09,9.09s-14.92,10.69-15.46,10.13c-.24-.25,1-2,3.49-4.32a64.76,64.76,0,0,1,22.62-13.78C82.71,193.73,84.81,193.38,84.92,193.71Z" style="fill:#fff"></path><path d="M179.34,174.64c.11.35-.51.85-1.46,1.41a10.86,10.86,0,0,0-3,2.28,3.22,3.22,0,0,0-.75,2.87c.15.82.63,1.32.51,1.67-.07.16-.31.28-.73.2a2.57,2.57,0,0,1-1.42-1,3.92,3.92,0,0,1-.8-2.49,4.91,4.91,0,0,1,1.14-2.94,6.43,6.43,0,0,1,2.32-1.78,8.09,8.09,0,0,1,2.12-.61C178.49,174.14,179.24,174.29,179.34,174.64Z" style="fill:#fff"></path><path d="M219.39,182s-.09,0-.25-.13l-.7-.45-2.68-1.72A95.41,95.41,0,0,0,205.53,174a60.4,60.4,0,0,0-16.5-5.06,31.61,31.61,0,0,0-10.14,0,18.73,18.73,0,0,0-5.06,1.69A11.57,11.57,0,0,0,169.6,174a7,7,0,0,0-1.2,5.12,10.64,10.64,0,0,0,2,4.83,23.53,23.53,0,0,0,3.58,3.74l1.95,1.61,2,1.51c5.25,3.87,10.32,6.91,14.33,9.83,2,1.43,3.77,2.85,5.27,4.13a47.59,47.59,0,0,1,3.61,3.53l1.22,1.39.81,1.07.5.67q.17.22.15.24s-.07-.06-.2-.21l-.53-.63-.85-1L201,208.41a50.25,50.25,0,0,0-3.66-3.45c-1.51-1.25-3.25-2.64-5.29-4.05-4-2.87-9.1-5.87-14.4-9.74l-2-1.51c-.65-.53-1.3-1.08-2-1.62a23.66,23.66,0,0,1-3.66-3.81,11,11,0,0,1-2.16-5.07,7.42,7.42,0,0,1,1.29-5.49,12,12,0,0,1,4.42-3.54,19.58,19.58,0,0,1,5.21-1.73,32,32,0,0,1,10.3,0,59.59,59.59,0,0,1,16.59,5.21,86.52,86.52,0,0,1,10.18,5.85c1.15.77,2,1.38,2.63,1.8l.67.49A2.08,2.08,0,0,1,219.39,182Z" style="fill:#263238"></path></g></svg>
